<svg width="1854" height="952" xmlns="http://www.w3.org/2000/svg" xmlns:xlink="http://www.w3.org/1999/xlink" xml:space="preserve" overflow="hidden"><defs><clipPath id="clip0"><rect x="1288" y="612" width="1854" height="952"/></clipPath></defs><g clip-path="url(#clip0)" transform="translate(-1288 -612)"><path d="M1452.5 839.5 1582.5 839.5 1647.5 943.3 1712.5 839.5 2232.5 839.5 2232.5 1099 2336.5 1163.88 2232.5 1228.75 2232.5 1358.5 1452.5 1358.5 1452.5 1228.75 1556.5 1163.88 1452.5 1099Z" stroke="#007D40" stroke-width="9.16667" stroke-miterlimit="8" fill="#E6FFED" fill-rule="evenodd"/><text fill="#007D40" font-family="Open Sans,Open Sans_MSFontService,sans-serif" font-style="italic" font-weight="400" font-size="110" transform="matrix(1 0 0 1 1581.42 1332)">Hyd</text><text fill="#007D40" font-family="Open Sans,Open Sans_MSFontService,sans-serif" font-style="italic" font-weight="400" font-size="110" transform="matrix(1 0 0 1 1770.48 1332)">. Model</text><text fill="#007D40" font-family="Open Sans Light,Open Sans Light_MSFontService,sans-serif" font-weight="300" font-size="73" transform="matrix(-1.83697e-16 -1 1 -1.83697e-16 1521.8 1099)">Param.</text><text fill="#007D40" font-family="Open Sans Light,Open Sans Light_MSFontService,sans-serif" font-weight="300" font-size="73" transform="matrix(-1.83697e-16 -1 1 -1.83697e-16 2211.17 1099)">Simul</text><text fill="#007D40" font-family="Open Sans Light,Open Sans Light_MSFontService,sans-serif" font-weight="300" font-size="73" transform="matrix(-1.83697e-16 -1 1 -1.83697e-16 2211.17 917)">.</text><text fill="#007D40" font-family="Open Sans Light,Open Sans Light_MSFontService,sans-serif" font-weight="300" font-size="73" transform="matrix(1 0 0 1 1711.99 908)">Forcing</text><text fill="#007D40" font-family="Open Sans Light,Open Sans Light_MSFontService,sans-serif" font-weight="300" font-size="73" transform="matrix(1 0 0 1 1953.76 908)">.</text><path d="M2870.5 1095.5 2974.44 1160.46" stroke="#007D40" stroke-width="9.16667" stroke-miterlimit="8" fill="none" fill-rule="evenodd"/><path d="M0 0 103.937 64.9606" stroke="#007D40" stroke-width="9.16667" stroke-miterlimit="8" fill="none" fill-rule="evenodd" transform="matrix(-1 0 0 1 2974.44 1160.5)"/><path d="M0 0 0.000360892 259.843" stroke="#007D40" stroke-width="9.16667" stroke-miterlimit="8" fill="none" fill-rule="evenodd" transform="matrix(1 0 0 -1 2870.5 1095.34)"/><path d="M0 0 1.91201 133.289" stroke="#007D40" stroke-width="9.16667" stroke-miterlimit="8" fill="none" fill-rule="evenodd" transform="matrix(-1 0 0 1 2870.41 1225.5)"/><text fill="#007D40" font-family="Open Sans Light,Open Sans Light_MSFontService,sans-serif" font-weight="300" font-size="73" transform="matrix(1 0 0 1 2595.55 908)">Forcing</text><text fill="#007D40" font-family="Open Sans Light,Open Sans Light_MSFontService,sans-serif" font-weight="300" font-size="73" transform="matrix(1 0 0 1 2837.32 908)">.</text><text fill="#007D40" font-family="Open Sans Light,Open Sans Light_MSFontService,sans-serif" font-weight="300" font-size="73" transform="matrix(1 0 0 1 2595.55 1012)">Param.</text><text fill="#007D40" font-family="Open Sans Light,Open Sans Light_MSFontService,sans-serif" font-weight="300" font-size="73" transform="matrix(1 0 0 1 2882.55 1077)">Simul</text><text fill="#007D40" font-family="Open Sans Light,Open Sans Light_MSFontService,sans-serif" font-weight="300" font-size="73" transform="matrix(1 0 0 1 3064.17 1077)">.</text><text fill="#007D40" font-family="Open Sans,Open Sans_MSFontService,sans-serif" font-style="italic" font-weight="400" font-size="110" transform="matrix(1 0 0 1 2595.55 1443)">Model</text><path d="M1654.08 636.5 1654.08 886.901 1644.92 886.901 1644.92 636.5ZM1676.42 847.877 1649.5 896.339 1622.58 847.877C1621.35 845.664 1622.15 842.874 1624.36 841.644 1626.57 840.415 1629.36 841.212 1630.59 843.425L1653.51 884.675 1645.49 884.675 1668.41 843.425C1669.64 841.212 1672.43 840.415 1674.64 841.644 1676.86 842.874 1677.65 845.664 1676.42 847.877Z" fill="#007D40"/><text fill="#007D40" font-family="Open Sans Light,Open Sans Light_MSFontService,sans-serif" font-weight="700" font-size="64" transform="matrix(1 0 0 1 1674.95 790)">Initial</text><text fill="#007D40" font-family="Open Sans Light,Open Sans Light_MSFontService,sans-serif" font-weight="300" font-size="64" transform="matrix(1 0 0 1 1843.96 790)">Condition</text><text fill="#007D40" font-family="Open Sans Light,Open Sans Light_MSFontService,sans-serif" font-weight="700" font-size="64" transform="matrix(1 0 0 1 1674.95 696)">Boundary</text><text fill="#007D40" font-family="Open Sans Light,Open Sans Light_MSFontService,sans-serif" font-weight="300" font-size="64" transform="matrix(1 0 0 1 1971.72 696)">Condition</text><rect x="1510" y="612" width="104" height="104" fill="#00B0F0"/><text fill="#FFFFFF" font-family="Open Sans,Open Sans_MSFontService,sans-serif" font-weight="700" font-size="55" transform="matrix(1 0 0 1 1523.15 683)">1.1</text><rect x="1510" y="722" width="104" height="104" fill="#00B0F0"/><text fill="#FFFFFF" font-family="Open Sans,Open Sans_MSFontService,sans-serif" font-weight="700" font-size="55" transform="matrix(1 0 0 1 1522.65 793)">1.2</text><path d="M1309.5 1163.92 1494.94 1163.92 1494.94 1173.08 1309.5 1173.08ZM1455.92 1141.58 1504.38 1168.5 1455.92 1195.42C1453.7 1196.65 1450.91 1195.86 1449.68 1193.64 1448.45 1191.43 1449.25 1188.64 1451.46 1187.41L1492.71 1164.49 1492.71 1172.51 1451.46 1149.59C1449.25 1148.36 1448.45 1145.57 1449.68 1143.36 1450.91 1141.14 1453.7 1140.35 1455.92 1141.58Z" fill="#00B0F0"/><rect x="1309" y="1040" width="104" height="104" fill="#00B0F0"/><text fill="#FFFFFF" font-family="Open Sans,Open Sans_MSFontService,sans-serif" font-weight="700" font-size="55" transform="matrix(1 0 0 1 1321.49 1111)">1.3</text><path d="M3.88666-2.42916 23.32 28.6641 15.5466 33.5224-3.88666 2.42916ZM37.8949 51.9841 57.3282 83.0773 49.5549 87.9357 30.1216 56.8424ZM71.9032 106.397 91.3365 137.491 83.5632 142.349 64.1299 111.256ZM105.911 160.811 125.345 191.904 117.571 196.762 98.1381 165.669ZM127.065 152.506 129.919 207.871 81.4036 181.044C79.1884 179.819 78.3856 177.031 79.6105 174.815 80.8354 172.6 83.6241 171.797 85.8393 173.022L127.135 195.857 120.34 200.103 117.911 152.978C117.781 150.45 119.724 148.295 122.252 148.165 124.78 148.034 126.935 149.978 127.065 152.506Z" fill="#00B0F0" transform="matrix(1 0 0 -1 1614.5 1531.37)"/><path d="M1679 1497C1679 1468.28 1702.28 1445 1731 1445 1759.72 1445 1783 1468.28 1783 1497 1783 1525.72 1759.72 1549 1731 1549 1702.28 1549 1679 1525.72 1679 1497Z" fill="#00B0F0" fill-rule="evenodd"/><text fill="#FFFFFF" font-family="Open Sans,Open Sans_MSFontService,sans-serif" font-weight="700" font-size="55" transform="matrix(1 0 0 1 1715.1 1516)">1</text></g></svg>