<svg width="1781" height="684" xmlns="http://www.w3.org/2000/svg" xmlns:xlink="http://www.w3.org/1999/xlink" xml:space="preserve" overflow="hidden"><g transform="translate(-705 -957)"><path d="M9.54861e-07-3.4375 55-3.43748 55 3.43752-9.54861e-07 3.4375ZM75.625-3.43748 130.625-3.43746 130.625 3.43754 75.625 3.43752ZM151.25-3.43746 206.25-3.43744 206.25 3.43756 151.25 3.43754ZM226.875-3.43744 281.875-3.43742 281.875 3.43758 226.875 3.43756ZM302.5-3.43742 357.5-3.4374 357.5 3.4376 302.5 3.43758ZM378.125-3.43739 433.125-3.43738 433.125 3.43762 378.125 3.4376ZM453.75-3.43737 508.75-3.43736 508.75 3.43764 453.75 3.43763ZM529.375-3.43735 584.375-3.43734 584.375 3.43766 529.375 3.43765ZM605-3.43733 660-3.43732 660 3.43768 605 3.43767ZM680.625-3.43731 735.625-3.4373 735.625 3.4377 680.625 3.43769ZM756.25-3.43729 811.25-3.43727 811.25 3.43773 756.25 3.43771ZM831.875-3.43727 886.875-3.43725 886.875 3.43775 831.875 3.43773ZM907.5-3.43725 962.5-3.43723 962.5 3.43777 907.5 3.43775ZM983.125-3.43723 1038.12-3.43721 1038.12 3.43779 983.125 3.43777ZM1058.75-3.43721 1113.75-3.43719 1113.75 3.43781 1058.75 3.43779ZM1134.38-3.43718 1189.38-3.43717 1189.38 3.43783 1134.38 3.43781ZM1210-3.43716 1265-3.43715 1265 3.43785 1210 3.43784ZM1285.62-3.43714 1292.13-3.43714 1292.13 3.43786 1285.62 3.43786ZM1252.55-25.9212 1299.21 0.000360494 1252.55 25.9219C1250.89 26.8439 1248.8 26.246 1247.88 24.5864 1246.95 22.9268 1247.55 20.8341 1249.21 19.9121L1290.46-3.00456 1290.46 3.00527 1249.21-19.9114C1247.55-20.8334 1246.95-22.9262 1247.88-24.5857 1248.8-26.2453 1250.89-26.8432 1252.55-25.9212Z" fill="#7F7F7F" transform="matrix(1 0 0 -1 925.5 1348.5)"/><path d="M6.36574e-06-4.58333 218.593-4.58303 218.593 4.58364-6.36574e-06 4.58333ZM214.009-22.9164 259.843 0.000360892 214.009 22.917Z" fill="#FF0000" transform="matrix(1 0 0 -1 978.5 1266.5)"/><path d="M6.36574e-06-4.58333 218.593-4.58303 218.593 4.58364-6.36574e-06 4.58333ZM214.009-22.9164 259.843 0.000360892 214.009 22.917Z" fill="#FF0000" transform="matrix(1 0 0 -1 1461.5 1184.5)"/><path d="M4.24383e-06-4.58333 348.514-4.58301 348.514 4.58366-4.24383e-06 4.58333ZM343.93-22.9163 389.764 0.000360892 343.93 22.917Z" fill="#E02D8A" transform="matrix(1 0 0 -1 1236.5 1266.5)"/><path d="M4.24383e-06-4.58333 348.514-4.58301 348.514 4.58366-4.24383e-06 4.58333ZM343.93-22.9163 389.764 0.000360892 343.93 22.917Z" fill="#93107E" transform="matrix(1 0 0 -1 1721.5 1184.5)"/><path d="M4.24383e-06-4.58333 348.514-4.58301 348.514 4.58366-4.24383e-06 4.58333ZM-2.12191e-05 22.9167-22.9167-2.12191e-05 2.12191e-05-22.9167 22.9167 2.12191e-05ZM343.93-22.9163 389.764 0.000360892 343.93 22.917Z" fill="#E02D8A" transform="matrix(1 0 0 -1 1236.5 1438.5)"/><path d="M4.24383e-06-4.58333 348.514-4.58301 348.514 4.58366-4.24383e-06 4.58333ZM-2.12191e-05 22.9167-22.9167-2.12191e-05 2.12191e-05-22.9167 22.9167 2.12191e-05ZM343.93-22.9163 389.764 0.000360892 343.93 22.917Z" fill="#93107E" transform="matrix(1 0 0 -1 1721.5 1438.5)"/><path d="M1236.5 1238.5 1236.5 1576.3" stroke="#E02D8A" stroke-width="4.58333" stroke-miterlimit="8" stroke-dasharray="36.6667 13.75 4.58333 13.75" fill="none" fill-rule="evenodd"/><path d="M1621.5 1238.5 1621.5 1576.3" stroke="#E02D8A" stroke-width="4.58333" stroke-miterlimit="8" stroke-dasharray="36.6667 13.75 4.58333 13.75" fill="none" fill-rule="evenodd"/><path d="M1722.5 1147.5 1722.5 1576.24" stroke="#93107E" stroke-width="4.58333" stroke-miterlimit="8" stroke-dasharray="36.6667 13.75 4.58333 13.75" fill="none" fill-rule="evenodd"/><path d="M2108.5 1147.5 2108.5 1576.24" stroke="#93107E" stroke-width="4.58333" stroke-miterlimit="8" stroke-dasharray="36.6667 13.75 4.58333 13.75" fill="none" fill-rule="evenodd"/><path d="M1461.5 1069.5 1461.5 1225.41" stroke="#FF0000" stroke-width="4.58333" stroke-miterlimit="8" stroke-dasharray="36.6667 13.75 4.58333 13.75" fill="none" fill-rule="evenodd"/><path d="M1722.5 1069.5 1722.5 1225.41" stroke="#FF0000" stroke-width="4.58333" stroke-miterlimit="8" stroke-dasharray="36.6667 13.75 4.58333 13.75" fill="none" fill-rule="evenodd"/><path d="M976.5 1068.5 976.5 1315.35" stroke="#FF0000" stroke-width="4.58333" stroke-miterlimit="8" stroke-dasharray="36.6667 13.75 4.58333 13.75" fill="none" fill-rule="evenodd"/><path d="M1237.5 1068.5 1237.5 1315.35" stroke="#FF0000" stroke-width="4.58333" stroke-miterlimit="8" stroke-dasharray="36.6667 13.75 4.58333 13.75" fill="none" fill-rule="evenodd"/><text fill="#93107E" font-family="Open Sans,Open Sans_MSFontService,sans-serif" font-style="italic" font-weight="700" font-size="73" transform="matrix(1 0 0 1 1765.52 1568)">Validate</text><text fill="#E02D8A" font-family="Open Sans,Open Sans_MSFontService,sans-serif" font-style="italic" font-weight="700" font-size="73" transform="matrix(1 0 0 1 1268.68 1556)">Calibrate</text><text fill="#FF0000" font-family="Open Sans,Open Sans_MSFontService,sans-serif" font-style="italic" font-weight="700" font-size="73" transform="matrix(1 0 0 1 1200.98 1049)">Warmup</text><text fill="#FF0000" font-family="Open Sans,Open Sans_MSFontService,sans-serif" font-style="italic" font-weight="400" font-size="64" transform="matrix(1 0 0 1 993.938 1121)">for</text><text fill="#FF0000" font-family="Open Sans,Open Sans_MSFontService,sans-serif" font-style="italic" font-weight="400" font-size="64" transform="matrix(1 0 0 1 1091.91 1121)">Cali.</text><text fill="#FF0000" font-family="Open Sans,Open Sans_MSFontService,sans-serif" font-style="italic" font-weight="400" font-size="64" transform="matrix(1 0 0 1 1485.73 1128)">for</text><text fill="#FF0000" font-family="Open Sans,Open Sans_MSFontService,sans-serif" font-style="italic" font-weight="400" font-size="64" transform="matrix(1 0 0 1 1583.7 1128)">Vali.</text><text fill="#7F7F7F" font-family="Open Sans,Open Sans_MSFontService,sans-serif" font-weight="400" font-size="74" transform="matrix(1 0 0 1 2225.7 1373)">Time</text><text fill="#FF0000" font-family="Open Sans,Open Sans_MSFontService,sans-serif" font-weight="400" font-size="74" transform="matrix(-1.83697e-16 -1 1 -1.83697e-16 797.717 1236)">With</text><text fill="#FF0000" font-family="Open Sans,Open Sans_MSFontService,sans-serif" font-weight="400" font-size="74" transform="matrix(-1.83697e-16 -1 1 -1.83697e-16 886.694 1307)">Warmup</text><text fill="#54378A" font-family="Open Sans,Open Sans_MSFontService,sans-serif" font-weight="400" font-size="74" transform="matrix(-1.83697e-16 -1 1 -1.83697e-16 797.718 1581)">With</text><text fill="#54378A" font-family="Open Sans,Open Sans_MSFontService,sans-serif" font-weight="400" font-size="74" transform="matrix(-1.83697e-16 -1 1 -1.83697e-16 886.695 1596)">Initial </text><text fill="#54378A" font-family="Open Sans,Open Sans_MSFontService,sans-serif" font-weight="400" font-size="74" transform="matrix(-1.83697e-16 -1 1 -1.83697e-16 975.718 1589)">State</text></g></svg>