<svg width="2800" height="975" xmlns="http://www.w3.org/2000/svg" xmlns:xlink="http://www.w3.org/1999/xlink" xml:space="preserve" overflow="hidden"><g transform="translate(-558 -670)"><path d="M716.5 926.5 846.5 926.5 911.5 1030.3 976.5 926.5 1496.5 926.5 1496.5 1186 1600.5 1250.88 1496.5 1315.75 1496.5 1445.5 716.5 1445.5 716.5 1315.75 820.5 1250.88 716.5 1186Z" stroke="#007D40" stroke-width="9.16667" stroke-miterlimit="8" fill="#E6FFED" fill-rule="evenodd"/><text fill="#007D40" font-family="Open Sans,Open Sans_MSFontService,sans-serif" font-style="italic" font-weight="400" font-size="110" transform="matrix(1 0 0 1 845.225 1419)">Hyd</text><text fill="#007D40" font-family="Open Sans,Open Sans_MSFontService,sans-serif" font-style="italic" font-weight="400" font-size="110" transform="matrix(1 0 0 1 1034.29 1419)">. Model</text><text fill="#007D40" font-family="Open Sans Light,Open Sans Light_MSFontService,sans-serif" font-weight="300" font-size="73" transform="matrix(-1.83697e-16 -1 1 -1.83697e-16 785.607 1185)">Param.</text><text fill="#007D40" font-family="Open Sans Light,Open Sans Light_MSFontService,sans-serif" font-weight="300" font-size="73" transform="matrix(-1.83697e-16 -1 1 -1.83697e-16 1474.97 1185)">Simul</text><text fill="#007D40" font-family="Open Sans Light,Open Sans Light_MSFontService,sans-serif" font-weight="300" font-size="73" transform="matrix(-1.83697e-16 -1 1 -1.83697e-16 1474.97 1004)">.</text><text fill="#007D40" font-family="Open Sans Light,Open Sans Light_MSFontService,sans-serif" font-weight="300" font-size="73" transform="matrix(1 0 0 1 975.797 995)">Forcing</text><text fill="#007D40" font-family="Open Sans Light,Open Sans Light_MSFontService,sans-serif" font-weight="300" font-size="73" transform="matrix(1 0 0 1 1217.57 995)">.</text><path d="M1567.5 926.5 1697.35 926.5 1762.28 1030.3 1827.21 926.5 2346.62 926.5 2346.62 1186 2450.5 1250.88 2346.62 1315.75 2346.62 1445.5 1567.5 1445.5 1567.5 1315.75 1671.38 1250.88 1567.5 1186Z" stroke="#00305E" stroke-width="9.16667" stroke-miterlimit="8" fill="#F3FFFF" fill-rule="evenodd"/><text fill="#00305E" font-family="Open Sans,Open Sans_MSFontService,sans-serif" font-style="italic" font-weight="400" font-size="110" transform="matrix(1 0 0 1 1695.85 1419)">Evalute</text><text fill="#00305E" font-family="Open Sans,Open Sans_MSFontService,sans-serif" font-style="italic" font-weight="400" font-size="110" transform="matrix(1 0 0 1 2076.27 1419)">Fct</text><text fill="#00305E" font-family="Open Sans,Open Sans_MSFontService,sans-serif" font-style="italic" font-weight="400" font-size="110" transform="matrix(1 0 0 1 2214.91 1419)">.</text><text fill="#00305E" font-family="Open Sans Light,Open Sans Light_MSFontService,sans-serif" font-weight="300" font-size="73" transform="matrix(-1.83697e-16 -1 1 -1.83697e-16 1636.23 1185)">Simul</text><text fill="#00305E" font-family="Open Sans Light,Open Sans Light_MSFontService,sans-serif" font-weight="300" font-size="73" transform="matrix(-1.83697e-16 -1 1 -1.83697e-16 1636.23 1004)">.</text><text fill="#00305E" font-family="Open Sans Light,Open Sans Light_MSFontService,sans-serif" font-weight="300" font-size="64" transform="matrix(-1.83697e-16 -1 1 -1.83697e-16 2322.15 1185)">Perform.</text><text fill="#00305E" font-family="Open Sans Light,Open Sans Light_MSFontService,sans-serif" font-weight="300" font-size="73" transform="matrix(1 0 0 1 1826.42 995)">Observ</text><text fill="#00305E" font-family="Open Sans Light,Open Sans Light_MSFontService,sans-serif" font-weight="300" font-size="73" transform="matrix(1 0 0 1 2063.04 995)">.</text><path d="M3047.5 1189.5 3151.44 1254.46" stroke="#00305E" stroke-width="9.16667" stroke-miterlimit="8" fill="none" fill-rule="evenodd"/><path d="M0 0 103.937 64.9606" stroke="#00305E" stroke-width="9.16667" stroke-miterlimit="8" fill="none" fill-rule="evenodd" transform="matrix(-1 0 0 1 3151.44 1254.5)"/><path d="M0 0 0.000360892 259.843" stroke="#00305E" stroke-width="9.16667" stroke-miterlimit="8" fill="none" fill-rule="evenodd" transform="matrix(1 0 0 -1 3047.5 1189.34)"/><path d="M0 0 1.91201 133.289" stroke="#00305E" stroke-width="9.16667" stroke-miterlimit="8" fill="none" fill-rule="evenodd" transform="matrix(-1 0 0 1 3047.41 1319.5)"/><path d="M2976.5 1190.5 3080.44 1255.46" stroke="#007D40" stroke-width="9.16667" stroke-miterlimit="8" fill="none" fill-rule="evenodd"/><path d="M0 0 103.937 64.9606" stroke="#007D40" stroke-width="9.16667" stroke-miterlimit="8" fill="none" fill-rule="evenodd" transform="matrix(-1 0 0 1 3080.44 1255.5)"/><path d="M0 0 0.000360892 259.843" stroke="#007D40" stroke-width="9.16667" stroke-miterlimit="8" fill="none" fill-rule="evenodd" transform="matrix(1 0 0 -1 2976.5 1190.34)"/><path d="M0 0 1.91201 133.289" stroke="#007D40" stroke-width="9.16667" stroke-miterlimit="8" fill="none" fill-rule="evenodd" transform="matrix(-1 0 0 1 2976.41 1320.5)"/><text fill="#007D40" font-family="Open Sans Light,Open Sans Light_MSFontService,sans-serif" font-weight="300" font-size="73" transform="matrix(1 0 0 1 2696.07 998)">Forcing</text><text fill="#007D40" font-family="Open Sans Light,Open Sans Light_MSFontService,sans-serif" font-weight="300" font-size="73" transform="matrix(1 0 0 1 2937.84 998)">.</text><text fill="#007D40" font-family="Open Sans Light,Open Sans Light_MSFontService,sans-serif" font-weight="300" font-size="73" transform="matrix(1 0 0 1 2696.07 1095)">Param.</text><text fill="#00305E" font-family="Open Sans Light,Open Sans Light_MSFontService,sans-serif" font-weight="300" font-size="73" transform="matrix(1 0 0 1 2696.07 1191)">Observ</text><text fill="#00305E" font-family="Open Sans Light,Open Sans Light_MSFontService,sans-serif" font-weight="300" font-size="73" transform="matrix(1 0 0 1 2932.69 1191)">.</text><text fill="#00305E" font-family="Open Sans,Open Sans_MSFontService,sans-serif" font-style="italic" font-weight="400" font-size="110" transform="matrix(1 0 0 1 2696.07 1538)">Evalute</text><text fill="#00305E" font-family="Open Sans Light,Open Sans Light_MSFontService,sans-serif" font-weight="300" font-size="64" transform="matrix(1 0 0 1 3066.2 1165)">Perform.</text><path d="M918.083 670.5 918.083 972.87 908.917 972.87 908.917 670.5ZM940.423 933.845 913.5 982.307 886.577 933.845C885.348 931.633 886.145 928.842 888.358 927.613 890.57 926.384 893.361 927.181 894.59 929.394L917.507 970.644 909.494 970.644 932.41 929.394C933.64 927.181 936.43 926.384 938.643 927.613 940.855 928.842 941.653 931.633 940.423 933.845Z" fill="#00B0F0"/><rect x="934" y="672" width="104" height="104" fill="#00B0F0"/><text fill="#FFFFFF" font-family="Open Sans,Open Sans_MSFontService,sans-serif" font-weight="700" font-size="55" transform="matrix(1 0 0 1 947.103 743)">1.1</text><rect x="934" y="804" width="104" height="104" fill="#00B0F0"/><text fill="#FFFFFF" font-family="Open Sans,Open Sans_MSFontService,sans-serif" font-weight="700" font-size="55" transform="matrix(1 0 0 1 947.103 875)">1.2</text><path d="M579.5 1245.92 764.94 1245.92 764.94 1255.08 579.5 1255.08ZM725.916 1223.58 774.378 1250.5 725.916 1277.42C723.703 1278.65 720.913 1277.86 719.684 1275.64 718.454 1273.43 719.252 1270.64 721.464 1269.41L762.714 1246.49 762.714 1254.51 721.464 1231.59C719.252 1230.36 718.454 1227.57 719.684 1225.36 720.913 1223.15 723.703 1222.35 725.916 1223.58Z" fill="#00B0F0"/><rect x="579" y="1122" width="104" height="103" fill="#00B0F0"/><text fill="#FFFFFF" font-family="Open Sans,Open Sans_MSFontService,sans-serif" font-weight="700" font-size="55" transform="matrix(1 0 0 1 591.894 1192)">1.3</text><path d="M3.88666-2.42916 23.32 28.6641 15.5466 33.5224-3.88666 2.42916ZM37.8949 51.9841 57.3282 83.0773 49.5549 87.9357 30.1216 56.8424ZM71.9032 106.397 91.3365 137.491 83.5632 142.349 64.1299 111.256ZM105.911 160.811 125.345 191.904 117.571 196.762 98.1381 165.669ZM127.065 152.506 129.919 207.871 81.4036 181.044C79.1884 179.819 78.3856 177.031 79.6105 174.815 80.8354 172.6 83.6241 171.797 85.8393 173.022L127.135 195.857 120.34 200.103 117.911 152.978C117.781 150.45 119.724 148.295 122.252 148.165 124.78 148.034 126.935 149.978 127.065 152.506Z" fill="#00B0F0" transform="matrix(1 0 0 -1 884.5 1612.37)"/><path d="M949 1579C949 1550.28 972.281 1527 1001 1527 1029.72 1527 1053 1550.28 1053 1579 1053 1607.72 1029.72 1631 1001 1631 972.281 1631 949 1607.72 949 1579Z" fill="#00B0F0" fill-rule="evenodd"/><text fill="#FFFFFF" font-family="Open Sans,Open Sans_MSFontService,sans-serif" font-weight="700" font-size="55" transform="matrix(1 0 0 1 985.505 1598)">1</text><path d="M3.88666-2.42916 23.32 28.6641 15.5466 33.5224-3.88666 2.42916ZM37.8949 51.9841 57.3282 83.0773 49.5549 87.9357 30.1216 56.8424ZM71.9032 106.397 91.3365 137.491 83.5632 142.349 64.1299 111.256ZM105.911 160.811 125.345 191.904 117.571 196.762 98.1381 165.669ZM127.065 152.506 129.919 207.871 81.4036 181.044C79.1884 179.819 78.3856 177.031 79.6105 174.815 80.8354 172.6 83.6241 171.797 85.8393 173.022L127.135 195.857 120.34 200.103 117.911 152.978C117.781 150.45 119.724 148.295 122.252 148.165 124.78 148.034 126.935 149.978 127.065 152.506Z" fill="#00B0F0" transform="matrix(1 0 0 -1 1735.5 1594.37)"/><path d="M1800 1560C1800 1531.28 1823.28 1508 1852 1508 1880.72 1508 1904 1531.28 1904 1560 1904 1588.72 1880.72 1612 1852 1612 1823.28 1612 1800 1588.72 1800 1560Z" fill="#00B0F0" fill-rule="evenodd"/><text fill="#FFFFFF" font-family="Open Sans,Open Sans_MSFontService,sans-serif" font-weight="700" font-size="55" transform="matrix(1 0 0 1 1836.13 1579)">2</text><path d="M1766.08 777.5 1766.08 962.94 1756.92 962.94 1756.92 777.5ZM1788.42 923.916 1761.5 972.378 1734.58 923.916C1733.35 921.703 1734.14 918.913 1736.36 917.684 1738.57 916.454 1741.36 917.252 1742.59 919.464L1765.51 960.714 1757.49 960.714 1780.41 919.464C1781.64 917.252 1784.43 916.454 1786.64 917.684 1788.86 918.913 1789.65 921.703 1788.42 923.916Z" fill="#00B0F0"/><rect x="1785" y="783" width="104" height="104" fill="#00B0F0"/><text fill="#FFFFFF" font-family="Open Sans,Open Sans_MSFontService,sans-serif" font-weight="700" font-size="55" transform="matrix(1 0 0 1 1821.32 854)">2</text></g></svg>