<svg width="2664" height="740" xmlns="http://www.w3.org/2000/svg" xmlns:xlink="http://www.w3.org/1999/xlink" xml:space="preserve" overflow="hidden"><g transform="translate(-613 -1535)"><path d="M635.5 1568.5 765.5 1568.5 830.5 1672.3 895.5 1568.5 1415.5 1568.5 1415.5 1828 1519.5 1892.88 1415.5 1957.75 1415.5 2087.5 635.5 2087.5 635.5 1957.75 739.5 1892.88 635.5 1828Z" stroke="#007D40" stroke-width="9.16667" stroke-miterlimit="8" fill="#E6FFED" fill-rule="evenodd"/><text fill="#007D40" font-family="Open Sans,Open Sans_MSFontService,sans-serif" font-style="italic" font-weight="400" font-size="110" transform="matrix(1 0 0 1 764.25 2061)">Hyd</text><text fill="#007D40" font-family="Open Sans,Open Sans_MSFontService,sans-serif" font-style="italic" font-weight="400" font-size="110" transform="matrix(1 0 0 1 953.312 2061)">. Model</text><text fill="#007D40" font-family="Open Sans Light,Open Sans Light_MSFontService,sans-serif" font-weight="300" font-size="73" transform="matrix(-1.83697e-16 -1 1 -1.83697e-16 704.632 1827)">Param.</text><text fill="#007D40" font-family="Open Sans Light,Open Sans Light_MSFontService,sans-serif" font-weight="300" font-size="73" transform="matrix(-1.83697e-16 -1 1 -1.83697e-16 1394 1827)">Simul</text><text fill="#007D40" font-family="Open Sans Light,Open Sans Light_MSFontService,sans-serif" font-weight="300" font-size="73" transform="matrix(-1.83697e-16 -1 1 -1.83697e-16 1394 1646)">.</text><text fill="#007D40" font-family="Open Sans Light,Open Sans Light_MSFontService,sans-serif" font-weight="300" font-size="73" transform="matrix(1 0 0 1 894.822 1637)">Forcing</text><text fill="#007D40" font-family="Open Sans Light,Open Sans Light_MSFontService,sans-serif" font-weight="300" font-size="73" transform="matrix(1 0 0 1 1136.59 1637)">.</text><path d="M1486.5 1568.5 1616.35 1568.5 1681.28 1672.3 1746.21 1568.5 2265.62 1568.5 2265.62 1828 2369.5 1892.88 2265.62 1957.75 2265.62 2087.5 1486.5 2087.5 1486.5 1957.75 1590.38 1892.88 1486.5 1828Z" stroke="#00305E" stroke-width="9.16667" stroke-miterlimit="8" fill="#F3FFFF" fill-rule="evenodd"/><text fill="#00305E" font-family="Open Sans,Open Sans_MSFontService,sans-serif" font-style="italic" font-weight="400" font-size="110" transform="matrix(1 0 0 1 1614.88 2061)">Evalute</text><text fill="#00305E" font-family="Open Sans,Open Sans_MSFontService,sans-serif" font-style="italic" font-weight="400" font-size="110" transform="matrix(1 0 0 1 1995.29 2061)">Fct</text><text fill="#00305E" font-family="Open Sans,Open Sans_MSFontService,sans-serif" font-style="italic" font-weight="400" font-size="110" transform="matrix(1 0 0 1 2133.94 2061)">.</text><text fill="#00305E" font-family="Open Sans Light,Open Sans Light_MSFontService,sans-serif" font-weight="300" font-size="73" transform="matrix(-1.83697e-16 -1 1 -1.83697e-16 1555.26 1827)">Simul</text><text fill="#00305E" font-family="Open Sans Light,Open Sans Light_MSFontService,sans-serif" font-weight="300" font-size="73" transform="matrix(-1.83697e-16 -1 1 -1.83697e-16 1555.26 1646)">.</text><text fill="#00305E" font-family="Open Sans Light,Open Sans Light_MSFontService,sans-serif" font-weight="300" font-size="64" transform="matrix(-1.83697e-16 -1 1 -1.83697e-16 2241.17 1827)">Perform.</text><text fill="#00305E" font-family="Open Sans Light,Open Sans Light_MSFontService,sans-serif" font-weight="300" font-size="73" transform="matrix(1 0 0 1 1745.45 1637)">Observ</text><text fill="#00305E" font-family="Open Sans Light,Open Sans Light_MSFontService,sans-serif" font-weight="300" font-size="73" transform="matrix(1 0 0 1 1982.06 1637)">.</text><path d="M2966.5 1831.5 3070.44 1896.46" stroke="#00305E" stroke-width="9.16667" stroke-miterlimit="8" fill="none" fill-rule="evenodd"/><path d="M0 0 103.937 64.9606" stroke="#00305E" stroke-width="9.16667" stroke-miterlimit="8" fill="none" fill-rule="evenodd" transform="matrix(-1 0 0 1 3070.44 1896.5)"/><path d="M0 0 0.000360892 259.843" stroke="#00305E" stroke-width="9.16667" stroke-miterlimit="8" fill="none" fill-rule="evenodd" transform="matrix(1 0 0 -1 2966.5 1831.34)"/><path d="M0 0 1.91201 133.289" stroke="#00305E" stroke-width="9.16667" stroke-miterlimit="8" fill="none" fill-rule="evenodd" transform="matrix(-1 0 0 1 2966.41 1961.5)"/><path d="M2895.5 1832.5 2999.44 1897.46" stroke="#007D40" stroke-width="9.16667" stroke-miterlimit="8" fill="none" fill-rule="evenodd"/><path d="M0 0 103.937 64.9606" stroke="#007D40" stroke-width="9.16667" stroke-miterlimit="8" fill="none" fill-rule="evenodd" transform="matrix(-1 0 0 1 2999.44 1897.5)"/><path d="M0 0 0.000360892 259.843" stroke="#007D40" stroke-width="9.16667" stroke-miterlimit="8" fill="none" fill-rule="evenodd" transform="matrix(1 0 0 -1 2895.5 1833.34)"/><path d="M0 0 1.91201 133.289" stroke="#007D40" stroke-width="9.16667" stroke-miterlimit="8" fill="none" fill-rule="evenodd" transform="matrix(-1 0 0 1 2895.41 1962.5)"/><text fill="#007D40" font-family="Open Sans Light,Open Sans Light_MSFontService,sans-serif" font-weight="300" font-size="73" transform="matrix(1 0 0 1 2615.1 1640)">Forcing</text><text fill="#007D40" font-family="Open Sans Light,Open Sans Light_MSFontService,sans-serif" font-weight="300" font-size="73" transform="matrix(1 0 0 1 2856.87 1640)">.</text><text fill="#007D40" font-family="Open Sans Light,Open Sans Light_MSFontService,sans-serif" font-weight="300" font-size="73" transform="matrix(1 0 0 1 2615.1 1737)">Param.</text><text fill="#00305E" font-family="Open Sans Light,Open Sans Light_MSFontService,sans-serif" font-weight="300" font-size="73" transform="matrix(1 0 0 1 2615.1 1833)">Observ</text><text fill="#00305E" font-family="Open Sans Light,Open Sans Light_MSFontService,sans-serif" font-weight="300" font-size="73" transform="matrix(1 0 0 1 2851.71 1833)">.</text><text fill="#00305E" font-family="Open Sans,Open Sans_MSFontService,sans-serif" font-style="italic" font-weight="400" font-size="110" transform="matrix(1 0 0 1 2615.1 2180)">Evalute</text><text fill="#00305E" font-family="Open Sans Light,Open Sans Light_MSFontService,sans-serif" font-weight="300" font-size="64" transform="matrix(1 0 0 1 2985.23 1807)">Perform.</text></g></svg>