<svg width="1712" height="921" xmlns="http://www.w3.org/2000/svg" xmlns:xlink="http://www.w3.org/1999/xlink" xml:space="preserve" overflow="hidden"><g transform="translate(-2237 -244)"><path d="M2259.5 466.5 2389.35 466.5 2454.28 570.5 2519.21 466.5 3038.62 466.5 3038.62 726.5 3142.5 791.5 3038.62 856.5 3038.62 986.5 2259.5 986.5 2259.5 856.5 2363.38 791.5 2259.5 726.5Z" stroke="#007D40" stroke-width="9.16667" stroke-miterlimit="8" fill="#E6FFED" fill-rule="evenodd"/><text fill="#007D40" font-family="Open Sans,Open Sans_MSFontService,sans-serif" font-style="italic" font-weight="400" font-size="110" transform="matrix(1 0 0 1 2387.85 960)">Hyd</text><text fill="#007D40" font-family="Open Sans,Open Sans_MSFontService,sans-serif" font-style="italic" font-weight="400" font-size="110" transform="matrix(1 0 0 1 2576.91 960)">. Model</text><text fill="#007D40" font-family="Open Sans Light,Open Sans Light_MSFontService,sans-serif" font-weight="300" font-size="73" transform="matrix(-1.83697e-16 -1 1 -1.83697e-16 2328.23 726)">Param.</text><text fill="#007D40" font-family="Open Sans Light,Open Sans Light_MSFontService,sans-serif" font-weight="300" font-size="73" transform="matrix(-1.83697e-16 -1 1 -1.83697e-16 3017.6 726)">Simul</text><text fill="#007D40" font-family="Open Sans Light,Open Sans Light_MSFontService,sans-serif" font-weight="300" font-size="73" transform="matrix(-1.83697e-16 -1 1 -1.83697e-16 3017.6 544)">.</text><text fill="#007D40" font-family="Open Sans Light,Open Sans Light_MSFontService,sans-serif" font-weight="300" font-size="73" transform="matrix(1 0 0 1 2518.42 535)">Forcing</text><text fill="#007D40" font-family="Open Sans Light,Open Sans Light_MSFontService,sans-serif" font-weight="300" font-size="73" transform="matrix(1 0 0 1 2760.19 535)">.</text><path d="M3676.5 723.5 3780.44 788.461" stroke="#007D40" stroke-width="9.16667" stroke-miterlimit="8" fill="none" fill-rule="evenodd"/><path d="M0 0 103.937 64.9606" stroke="#007D40" stroke-width="9.16667" stroke-miterlimit="8" fill="none" fill-rule="evenodd" transform="matrix(-1 0 0 1 3780.44 788.5)"/><path d="M0 0 0.000360892 259.843" stroke="#007D40" stroke-width="9.16667" stroke-miterlimit="8" fill="none" fill-rule="evenodd" transform="matrix(1 0 0 -1 3676.5 723.342)"/><path d="M0 0 1.91201 133.289" stroke="#007D40" stroke-width="9.16667" stroke-miterlimit="8" fill="none" fill-rule="evenodd" transform="matrix(-1 0 0 1 3676.41 853.5)"/><text fill="#007D40" font-family="Open Sans Light,Open Sans Light_MSFontService,sans-serif" font-weight="300" font-size="73" transform="matrix(1 0 0 1 3401.99 535)">Forcing</text><text fill="#007D40" font-family="Open Sans Light,Open Sans Light_MSFontService,sans-serif" font-weight="300" font-size="73" transform="matrix(1 0 0 1 3643.76 535)">.</text><text fill="#007D40" font-family="Open Sans Light,Open Sans Light_MSFontService,sans-serif" font-weight="300" font-size="73" transform="matrix(1 0 0 1 3401.99 640)">Param.</text><text fill="#007D40" font-family="Open Sans Light,Open Sans Light_MSFontService,sans-serif" font-weight="300" font-size="73" transform="matrix(1 0 0 1 3688.99 705)">Simul</text><text fill="#007D40" font-family="Open Sans Light,Open Sans Light_MSFontService,sans-serif" font-weight="300" font-size="73" transform="matrix(1 0 0 1 3870.6 705)">.</text><text fill="#007D40" font-family="Open Sans,Open Sans_MSFontService,sans-serif" font-style="italic" font-weight="400" font-size="110" transform="matrix(1 0 0 1 3401.99 1070)">Model</text><path d="M2460.08 264.5 2460.08 514.901 2450.92 514.901 2450.92 264.5ZM2482.42 475.877 2455.5 524.338 2428.58 475.877C2427.35 473.664 2428.15 470.874 2430.36 469.644 2432.57 468.415 2435.36 469.212 2436.59 471.425L2459.51 512.675 2451.49 512.675 2474.41 471.425C2475.64 469.212 2478.43 468.415 2480.64 469.644 2482.86 470.873 2483.65 473.664 2482.42 475.877Z" fill="#007D40"/><text fill="#007D40" font-family="Open Sans Light,Open Sans Light_MSFontService,sans-serif" font-weight="700" font-size="64" transform="matrix(1 0 0 1 2481.38 417)">Initial</text><text fill="#007D40" font-family="Open Sans Light,Open Sans Light_MSFontService,sans-serif" font-weight="300" font-size="64" transform="matrix(1 0 0 1 2650.39 417)">Condition</text><text fill="#007D40" font-family="Open Sans Light,Open Sans Light_MSFontService,sans-serif" font-weight="700" font-size="64" transform="matrix(1 0 0 1 2481.38 323)">Boundary</text><text fill="#007D40" font-family="Open Sans Light,Open Sans Light_MSFontService,sans-serif" font-weight="300" font-size="64" transform="matrix(1 0 0 1 2778.15 323)">Condition</text></g></svg>