<svg width="2287" height="484" xmlns="http://www.w3.org/2000/svg" xmlns:xlink="http://www.w3.org/1999/xlink" xml:space="preserve" overflow="hidden"><g transform="translate(-791 -279)"><rect x="1090" y="446.5" width="136.5" height="136.5" fill="#E3FFFF"/><path d="M1226.5 446.5 1272 401 1272 537.5 1226.5 583Z" fill="#B6CDCD" fill-rule="evenodd"/><path d="M1090 446.5 1135.5 401 1272 401 1226.5 446.5Z" fill="#E8FFFF" fill-rule="evenodd"/><path d="M1090 446.5 1135.5 401 1272 401 1272 537.5 1226.5 583 1090 583ZM1090 446.5 1226.5 446.5 1272 401M1226.5 446.5 1226.5 583" stroke="#00B0F0" stroke-width="8.02083" stroke-miterlimit="8" fill="none" fill-rule="evenodd"/><text fill="#00305E" font-family="Open Sans,Open Sans_MSFontService,sans-serif" font-weight="400" font-size="74" transform="matrix(1 0 0 1 1139.87 543)">t</text><path d="M1182.08 293.5 1182.08 413.98 1172.92 413.98 1172.92 293.5ZM1163.75 293.5C1163.75 285.906 1169.91 279.75 1177.5 279.75 1185.09 279.75 1191.25 285.906 1191.25 293.5 1191.25 301.094 1185.09 307.25 1177.5 307.25 1169.91 307.25 1163.75 301.094 1163.75 293.5ZM1204.42 374.955 1177.5 423.417 1150.58 374.956C1149.35 372.743 1150.14 369.952 1152.36 368.723 1154.57 367.494 1157.36 368.291 1158.59 370.504L1181.51 411.754 1173.49 411.754 1196.41 370.504C1197.64 368.291 1200.43 367.494 1202.64 368.723 1204.86 369.952 1205.65 372.743 1204.42 374.955Z" fill="#007D40"/><path d="M1182.08 583.5 1182.08 703.979 1172.92 703.979 1172.92 583.5ZM1204.42 664.955 1177.5 713.417 1150.58 664.955C1149.35 662.743 1150.14 659.952 1152.36 658.723 1154.57 657.494 1157.36 658.291 1158.59 660.504L1181.51 701.754 1173.49 701.754 1196.41 660.503C1197.64 658.291 1200.43 657.493 1202.64 658.723 1204.86 659.952 1205.65 662.742 1204.42 664.955Z" fill="#F07D00"/><text fill="#007D40" font-family="Open Sans,Open Sans_MSFontService,sans-serif" font-weight="400" font-size="55" transform="matrix(1 0 0 1 1186.28 356)">BC</text><text fill="#007D40" font-family="Open Sans,Open Sans_MSFontService,sans-serif" font-weight="400" font-size="41" transform="matrix(1 0 0 1 1256.17 356)">(t)</text><text fill="#007D40" font-family="Open Sans Light,Open Sans Light_MSFontService,sans-serif" font-weight="300" font-size="55" transform="matrix(1 0 0 1 1309.46 356)">(</text><text fill="#007D40" font-family="Open Sans Light,Open Sans Light_MSFontService,sans-serif" font-weight="300" font-size="55" transform="matrix(1 0 0 1 1324.35 356)">Inflow</text><text fill="#007D40" font-family="Open Sans Light,Open Sans Light_MSFontService,sans-serif" font-weight="300" font-size="55" transform="matrix(1 0 0 1 1471.59 356)">)</text><text fill="#F07D00" font-family="Open Sans,Open Sans_MSFontService,sans-serif" font-weight="400" font-size="55" transform="matrix(1 0 0 1 1200.71 635)">Simul</text><text fill="#F07D00" font-family="Open Sans,Open Sans_MSFontService,sans-serif" font-weight="400" font-size="46" transform="matrix(1 0 0 1 1343.36 635)">.(t)</text><text fill="#F07D00" font-family="Open Sans Light,Open Sans Light_MSFontService,sans-serif" font-weight="300" font-size="55" transform="matrix(1 0 0 1 1200.71 701)">(</text><text fill="#F07D00" font-family="Open Sans Light,Open Sans Light_MSFontService,sans-serif" font-weight="300" font-size="55" transform="matrix(1 0 0 1 1215.6 701)">Outflow</text><text fill="#F07D00" font-family="Open Sans Light,Open Sans Light_MSFontService,sans-serif" font-weight="300" font-size="55" transform="matrix(1 0 0 1 1409.25 701)">)</text><path d="M1256.5 483.062 1345.17 483.062 1345.17 489.937 1256.5 489.937ZM1340.59 463.583 1386.42 486.5 1340.59 509.416Z" fill="#54378A"/><path d="M942.5 492.062 1031.17 492.062 1031.17 498.937 942.5 498.937ZM1026.59 472.583 1072.42 495.499 1026.59 518.416Z" fill="#54378A"/><text fill="#002060" font-family="Open Sans,Open Sans_MSFontService,sans-serif" font-weight="400" font-size="64" transform="matrix(1 0 0 1 830.452 458)">State</text><text fill="#002060" font-family="Open Sans,Open Sans_MSFontService,sans-serif" font-weight="400" font-size="46" transform="matrix(1 0 0 1 982.847 458)">(t</text><text fill="#002060" font-family="Open Sans,Open Sans_MSFontService,sans-serif" font-weight="400" font-size="46" transform="matrix(1 0 0 1 1013.21 458)">-</text><text fill="#002060" font-family="Open Sans,Open Sans_MSFontService,sans-serif" font-weight="400" font-size="46" transform="matrix(1 0 0 1 1028.11 458)">1)</text><text fill="#002060" font-family="Open Sans,Open Sans_MSFontService,sans-serif" font-weight="400" font-size="64" transform="matrix(1 0 0 1 1255.95 459)">State</text><text fill="#002060" font-family="Open Sans,Open Sans_MSFontService,sans-serif" font-weight="400" font-size="46" transform="matrix(1 0 0 1 1408.35 459)">(t)</text><path d="M1.19358e-06-3.4375 55-3.43748 55 3.43752-1.19358e-06 3.4375ZM75.625-3.43747 130.625-3.43745 130.625 3.43755 75.625 3.43753ZM151.25-3.43745 206.25-3.43743 206.25 3.43757 151.25 3.43755ZM226.875-3.43742 281.875-3.4374 281.875 3.4376 226.875 3.43758ZM302.5-3.43739 357.5-3.43738 357.5 3.43762 302.5 3.4376ZM378.125-3.43737 433.125-3.43735 433.125 3.43765 378.125 3.43763ZM453.75-3.43734 508.75-3.43732 508.75 3.43768 453.75 3.43766ZM529.375-3.43732 584.375-3.4373 584.375 3.4377 529.375 3.43768ZM605-3.43729 660-3.43727 660 3.43773 605 3.43771ZM680.625-3.43726 735.625-3.43724 735.625 3.43776 680.625 3.43774ZM756.25-3.43724 811.25-3.43722 811.25 3.43778 756.25 3.43776ZM831.875-3.43721 886.875-3.43719 886.875 3.43781 831.875 3.43779ZM907.5-3.43718 962.5-3.43717 962.5 3.43783 907.5 3.43781ZM983.125-3.43716 1032.29-3.43714 1032.29 3.43786 983.125 3.43784ZM992.708-25.9212 1039.37 0.000360243 992.708 25.9219C991.049 26.8439 988.956 26.246 988.034 24.5864 987.112 22.9268 987.71 20.8341 989.369 19.9121L1030.62-3.00456 1030.62 3.00527 989.369-19.9114C987.71-20.8334 987.112-22.9262 988.034-24.5857 988.956-26.2453 991.049-26.8432 992.708-25.9212Z" fill="#E3E4E4" transform="matrix(1 0 0 -1 1717.5 346.5)"/><path d="M1.19358e-06-3.4375 55-3.43748 55 3.43752-1.19358e-06 3.4375ZM75.625-3.43747 130.625-3.43745 130.625 3.43755 75.625 3.43753ZM151.25-3.43745 206.25-3.43743 206.25 3.43757 151.25 3.43755ZM226.875-3.43742 281.875-3.4374 281.875 3.4376 226.875 3.43758ZM302.5-3.43739 357.5-3.43738 357.5 3.43762 302.5 3.4376ZM378.125-3.43737 433.125-3.43735 433.125 3.43765 378.125 3.43763ZM453.75-3.43734 508.75-3.43732 508.75 3.43768 453.75 3.43766ZM529.375-3.43732 584.375-3.4373 584.375 3.4377 529.375 3.43768ZM605-3.43729 660-3.43727 660 3.43773 605 3.43771ZM680.625-3.43726 735.625-3.43724 735.625 3.43776 680.625 3.43774ZM756.25-3.43724 811.25-3.43722 811.25 3.43778 756.25 3.43776ZM831.875-3.43721 886.875-3.43719 886.875 3.43781 831.875 3.43779ZM907.5-3.43718 962.5-3.43717 962.5 3.43783 907.5 3.43781ZM983.125-3.43716 1032.29-3.43714 1032.29 3.43786 983.125 3.43784ZM992.708-25.9212 1039.37 0.000360243 992.708 25.9219C991.049 26.8439 988.956 26.246 988.034 24.5864 987.112 22.9268 987.71 20.8341 989.369 19.9121L1030.62-3.00456 1030.62 3.00527 989.369-19.9114C987.71-20.8334 987.112-22.9262 988.034-24.5857 988.956-26.2453 991.049-26.8432 992.708-25.9212Z" fill="#E3E4E4" transform="matrix(1 0 0 -1 1717.5 636.5)"/><rect x="1700" y="444.5" width="136.5" height="136.5" fill="#E3FFFF"/><path d="M1836.5 444.5 1882 399 1882 535.5 1836.5 581Z" fill="#B6CDCD" fill-rule="evenodd"/><path d="M1700 444.5 1745.5 399 1882 399 1836.5 444.5Z" fill="#E8FFFF" fill-rule="evenodd"/><path d="M1700 444.5 1745.5 399 1882 399 1882 535.5 1836.5 581 1700 581ZM1700 444.5 1836.5 444.5 1882 399M1836.5 444.5 1836.5 581" stroke="#00B0F0" stroke-width="8.02083" stroke-miterlimit="8" fill="none" fill-rule="evenodd"/><rect x="1837" y="444.5" width="136.5" height="136.5" fill="#E3FFFF"/><path d="M1973.5 444.5 2019 399 2019 535.5 1973.5 581Z" fill="#B6CDCD" fill-rule="evenodd"/><path d="M1837 444.5 1882.5 399 2019 399 1973.5 444.5Z" fill="#E8FFFF" fill-rule="evenodd"/><path d="M1837 444.5 1882.5 399 2019 399 2019 535.5 1973.5 581 1837 581ZM1837 444.5 1973.5 444.5 2019 399M1973.5 444.5 1973.5 581" stroke="#00B0F0" stroke-width="8.02083" stroke-miterlimit="8" fill="none" fill-rule="evenodd"/><rect x="1974" y="444.5" width="136.5" height="136.5" fill="#E3FFFF"/><path d="M2110.5 444.5 2156 399 2156 535.5 2110.5 581Z" fill="#B6CDCD" fill-rule="evenodd"/><path d="M1974 444.5 2019.5 399 2156 399 2110.5 444.5Z" fill="#E8FFFF" fill-rule="evenodd"/><path d="M1974 444.5 2019.5 399 2156 399 2156 535.5 2110.5 581 1974 581ZM1974 444.5 2110.5 444.5 2156 399M2110.5 444.5 2110.5 581" stroke="#00B0F0" stroke-width="8.02083" stroke-miterlimit="8" fill="none" fill-rule="evenodd"/><rect x="2111" y="444.5" width="136.5" height="136.5" fill="#E3FFFF"/><path d="M2247.5 444.5 2293 399 2293 535.5 2247.5 581Z" fill="#B6CDCD" fill-rule="evenodd"/><path d="M2111 444.5 2156.5 399 2293 399 2247.5 444.5Z" fill="#E8FFFF" fill-rule="evenodd"/><path d="M2111 444.5 2156.5 399 2293 399 2293 535.5 2247.5 581 2111 581ZM2111 444.5 2247.5 444.5 2293 399M2247.5 444.5 2247.5 581" stroke="#00B0F0" stroke-width="8.02083" stroke-miterlimit="8" fill="none" fill-rule="evenodd"/><rect x="2248" y="444.5" width="136.5" height="136.5" fill="#E3FFFF"/><path d="M2384.5 444.5 2430 399 2430 535.5 2384.5 581Z" fill="#B6CDCD" fill-rule="evenodd"/><path d="M2248 444.5 2293.5 399 2430 399 2384.5 444.5Z" fill="#E8FFFF" fill-rule="evenodd"/><path d="M2248 444.5 2293.5 399 2430 399 2430 535.5 2384.5 581 2248 581ZM2248 444.5 2384.5 444.5 2430 399M2384.5 444.5 2384.5 581" stroke="#00B0F0" stroke-width="8.02083" stroke-miterlimit="8" fill="none" fill-rule="evenodd"/><rect x="2385" y="444.5" width="136.5" height="136.5" fill="#E3FFFF"/><path d="M2521.5 444.5 2567 399 2567 535.5 2521.5 581Z" fill="#B6CDCD" fill-rule="evenodd"/><path d="M2385 444.5 2430.5 399 2567 399 2521.5 444.5Z" fill="#E8FFFF" fill-rule="evenodd"/><path d="M2385 444.5 2430.5 399 2567 399 2567 535.5 2521.5 581 2385 581ZM2385 444.5 2521.5 444.5 2567 399M2521.5 444.5 2521.5 581" stroke="#00B0F0" stroke-width="8.02083" stroke-miterlimit="8" fill="none" fill-rule="evenodd"/><rect x="2524" y="444.5" width="136.5" height="136.5" fill="#E3FFFF"/><path d="M2660.5 444.5 2706 399 2706 535.5 2660.5 581Z" fill="#B6CDCD" fill-rule="evenodd"/><path d="M2524 444.5 2569.5 399 2706 399 2660.5 444.5Z" fill="#E8FFFF" fill-rule="evenodd"/><path d="M2524 444.5 2569.5 399 2706 399 2706 535.5 2660.5 581 2524 581ZM2524 444.5 2660.5 444.5 2706 399M2660.5 444.5 2660.5 581" stroke="#00B0F0" stroke-width="8.02083" stroke-miterlimit="8" fill="none" fill-rule="evenodd"/><path d="M1794.08 293.5 1794.08 413.98 1784.92 413.98 1784.92 293.5ZM1775.75 293.5C1775.75 285.906 1781.91 279.75 1789.5 279.75 1797.09 279.75 1803.25 285.906 1803.25 293.5 1803.25 301.094 1797.09 307.25 1789.5 307.25 1781.91 307.25 1775.75 301.094 1775.75 293.5ZM1816.42 374.955 1789.5 423.417 1762.58 374.956C1761.35 372.743 1762.15 369.952 1764.36 368.723 1766.57 367.494 1769.36 368.291 1770.59 370.504L1793.51 411.754 1785.49 411.754 1808.41 370.504C1809.64 368.291 1812.43 367.494 1814.64 368.723 1816.86 369.952 1817.65 372.743 1816.42 374.955Z" fill="#007D40"/><path d="M1930.08 293.5 1930.08 413.98 1920.92 413.98 1920.92 293.5ZM1911.75 293.5C1911.75 285.906 1917.91 279.75 1925.5 279.75 1933.09 279.75 1939.25 285.906 1939.25 293.5 1939.25 301.094 1933.09 307.25 1925.5 307.25 1917.91 307.25 1911.75 301.094 1911.75 293.5ZM1952.42 374.955 1925.5 423.417 1898.58 374.956C1897.35 372.743 1898.14 369.952 1900.36 368.723 1902.57 367.494 1905.36 368.291 1906.59 370.504L1929.51 411.754 1921.49 411.754 1944.41 370.504C1945.64 368.291 1948.43 367.494 1950.64 368.723 1952.86 369.952 1953.65 372.743 1952.42 374.955Z" fill="#007D40"/><path d="M2067.08 293.5 2067.08 413.98 2057.92 413.98 2057.92 293.5ZM2048.75 293.5C2048.75 285.906 2054.91 279.75 2062.5 279.75 2070.09 279.75 2076.25 285.906 2076.25 293.5 2076.25 301.094 2070.09 307.25 2062.5 307.25 2054.91 307.25 2048.75 301.094 2048.75 293.5ZM2089.42 374.955 2062.5 423.417 2035.58 374.956C2034.35 372.743 2035.14 369.952 2037.36 368.723 2039.57 367.494 2042.36 368.291 2043.59 370.504L2066.51 411.754 2058.49 411.754 2081.41 370.504C2082.64 368.291 2085.43 367.494 2087.64 368.723 2089.86 369.952 2090.65 372.743 2089.42 374.955Z" fill="#007D40"/><path d="M2204.08 293.5 2204.08 413.98 2194.92 413.98 2194.92 293.5ZM2185.75 293.5C2185.75 285.906 2191.91 279.75 2199.5 279.75 2207.09 279.75 2213.25 285.906 2213.25 293.5 2213.25 301.094 2207.09 307.25 2199.5 307.25 2191.91 307.25 2185.75 301.094 2185.75 293.5ZM2226.42 374.955 2199.5 423.417 2172.58 374.956C2171.35 372.743 2172.15 369.952 2174.36 368.723 2176.57 367.494 2179.36 368.291 2180.59 370.504L2203.51 411.754 2195.49 411.754 2218.41 370.504C2219.64 368.291 2222.43 367.494 2224.64 368.723 2226.86 369.952 2227.65 372.743 2226.42 374.955Z" fill="#007D40"/><path d="M2341.08 293.5 2341.08 413.98 2331.92 413.98 2331.92 293.5ZM2322.75 293.5C2322.75 285.906 2328.91 279.75 2336.5 279.75 2344.09 279.75 2350.25 285.906 2350.25 293.5 2350.25 301.094 2344.09 307.25 2336.5 307.25 2328.91 307.25 2322.75 301.094 2322.75 293.5ZM2363.42 374.955 2336.5 423.417 2309.58 374.956C2308.35 372.743 2309.15 369.952 2311.36 368.723 2313.57 367.494 2316.36 368.291 2317.59 370.504L2340.51 411.754 2332.49 411.754 2355.41 370.504C2356.64 368.291 2359.43 367.494 2361.64 368.723 2363.86 369.952 2364.65 372.743 2363.42 374.955Z" fill="#007D40"/><path d="M2478.08 293.5 2478.08 413.98 2468.92 413.98 2468.92 293.5ZM2459.75 293.5C2459.75 285.906 2465.91 279.75 2473.5 279.75 2481.09 279.75 2487.25 285.906 2487.25 293.5 2487.25 301.094 2481.09 307.25 2473.5 307.25 2465.91 307.25 2459.75 301.094 2459.75 293.5ZM2500.42 374.955 2473.5 423.417 2446.58 374.956C2445.35 372.743 2446.15 369.952 2448.36 368.723 2450.57 367.494 2453.36 368.291 2454.59 370.504L2477.51 411.754 2469.49 411.754 2492.41 370.504C2493.64 368.291 2496.43 367.494 2498.64 368.723 2500.86 369.952 2501.65 372.743 2500.42 374.955Z" fill="#007D40"/><path d="M2615.08 293.5 2615.08 413.98 2605.92 413.98 2605.92 293.5ZM2596.75 293.5C2596.75 285.906 2602.91 279.75 2610.5 279.75 2618.09 279.75 2624.25 285.906 2624.25 293.5 2624.25 301.094 2618.09 307.25 2610.5 307.25 2602.91 307.25 2596.75 301.094 2596.75 293.5ZM2637.42 374.955 2610.5 423.417 2583.58 374.956C2582.35 372.743 2583.15 369.952 2585.36 368.723 2587.57 367.494 2590.36 368.291 2591.59 370.504L2614.51 411.754 2606.49 411.754 2629.41 370.504C2630.64 368.291 2633.43 367.494 2635.64 368.723 2637.86 369.952 2638.65 372.743 2637.42 374.955Z" fill="#007D40"/><path d="M1794.08 583.5 1794.08 703.979 1784.92 703.979 1784.92 583.5ZM1816.42 664.955 1789.5 713.417 1762.58 664.955C1761.35 662.743 1762.15 659.952 1764.36 658.723 1766.57 657.494 1769.36 658.291 1770.59 660.504L1793.51 701.754 1785.49 701.754 1808.41 660.503C1809.64 658.291 1812.43 657.493 1814.64 658.723 1816.86 659.952 1817.65 662.742 1816.42 664.955Z" fill="#F07D00"/><path d="M1930.08 583.5 1930.08 703.979 1920.92 703.979 1920.92 583.5ZM1952.42 664.955 1925.5 713.417 1898.58 664.955C1897.35 662.743 1898.14 659.952 1900.36 658.723 1902.57 657.494 1905.36 658.291 1906.59 660.504L1929.51 701.754 1921.49 701.754 1944.41 660.503C1945.64 658.291 1948.43 657.493 1950.64 658.723 1952.86 659.952 1953.65 662.742 1952.42 664.955Z" fill="#F07D00"/><path d="M2067.08 583.5 2067.08 703.979 2057.92 703.979 2057.92 583.5ZM2089.42 664.955 2062.5 713.417 2035.58 664.955C2034.35 662.743 2035.14 659.952 2037.36 658.723 2039.57 657.494 2042.36 658.291 2043.59 660.504L2066.51 701.754 2058.49 701.754 2081.41 660.503C2082.64 658.291 2085.43 657.493 2087.64 658.723 2089.86 659.952 2090.65 662.742 2089.42 664.955Z" fill="#F07D00"/><path d="M2204.08 583.5 2204.08 703.979 2194.92 703.979 2194.92 583.5ZM2226.42 664.955 2199.5 713.417 2172.58 664.955C2171.35 662.743 2172.15 659.952 2174.36 658.723 2176.57 657.494 2179.36 658.291 2180.59 660.504L2203.51 701.754 2195.49 701.754 2218.41 660.503C2219.64 658.291 2222.43 657.493 2224.64 658.723 2226.86 659.952 2227.65 662.742 2226.42 664.955Z" fill="#F07D00"/><path d="M2341.08 583.5 2341.08 703.979 2331.92 703.979 2331.92 583.5ZM2363.42 664.955 2336.5 713.417 2309.58 664.955C2308.35 662.743 2309.15 659.952 2311.36 658.723 2313.57 657.494 2316.36 658.291 2317.59 660.504L2340.51 701.754 2332.49 701.754 2355.41 660.503C2356.64 658.291 2359.43 657.493 2361.64 658.723 2363.86 659.952 2364.65 662.742 2363.42 664.955Z" fill="#F07D00"/><path d="M2478.08 583.5 2478.08 703.979 2468.92 703.979 2468.92 583.5ZM2500.42 664.955 2473.5 713.417 2446.58 664.955C2445.35 662.743 2446.15 659.952 2448.36 658.723 2450.57 657.494 2453.36 658.291 2454.59 660.504L2477.51 701.754 2469.49 701.754 2492.41 660.503C2493.64 658.291 2496.43 657.493 2498.64 658.723 2500.86 659.952 2501.65 662.742 2500.42 664.955Z" fill="#F07D00"/><path d="M2615.08 583.5 2615.08 703.979 2605.92 703.979 2605.92 583.5ZM2637.42 664.955 2610.5 713.417 2583.58 664.955C2582.35 662.743 2583.15 659.952 2585.36 658.723 2587.57 657.494 2590.36 658.291 2591.59 660.504L2614.51 701.754 2606.49 701.754 2629.41 660.503C2630.64 658.291 2633.43 657.493 2635.64 658.723 2637.86 659.952 2638.65 662.742 2637.42 664.955Z" fill="#F07D00"/><text fill="#00305E" font-family="Open Sans,Open Sans_MSFontService,sans-serif" font-weight="400" font-size="74" transform="matrix(1 0 0 1 2559.57 541)">t</text><text fill="#00305E" font-family="Open Sans,Open Sans_MSFontService,sans-serif" font-weight="400" font-size="46" transform="matrix(1 0 0 1 2585.93 541)">n</text><text fill="#00305E" font-family="Open Sans,Open Sans_MSFontService,sans-serif" font-weight="400" font-size="74" transform="matrix(1 0 0 1 2145.12 539)">t</text><text fill="#00305E" font-family="Open Sans,Open Sans_MSFontService,sans-serif" font-weight="400" font-size="46" transform="matrix(1 0 0 1 2171.48 539)">…</text><text fill="#00305E" font-family="Open Sans,Open Sans_MSFontService,sans-serif" font-weight="400" font-size="74" transform="matrix(1 0 0 1 2265.73 539)">t</text><text fill="#00305E" font-family="Open Sans,Open Sans_MSFontService,sans-serif" font-weight="400" font-size="46" transform="matrix(1 0 0 1 2292.09 539)">n</text><text fill="#00305E" font-family="Open Sans,Open Sans_MSFontService,sans-serif" font-weight="400" font-size="46" transform="matrix(1 0 0 1 2320.16 539)">-</text><text fill="#00305E" font-family="Open Sans,Open Sans_MSFontService,sans-serif" font-weight="400" font-size="46" transform="matrix(1 0 0 1 2335.06 539)">2</text><text fill="#00305E" font-family="Open Sans,Open Sans_MSFontService,sans-serif" font-weight="400" font-size="74" transform="matrix(1 0 0 1 2401.92 539)">t</text><text fill="#00305E" font-family="Open Sans,Open Sans_MSFontService,sans-serif" font-weight="400" font-size="46" transform="matrix(1 0 0 1 2428.28 539)">n</text><text fill="#00305E" font-family="Open Sans,Open Sans_MSFontService,sans-serif" font-weight="400" font-size="46" transform="matrix(1 0 0 1 2456.35 539)">-</text><text fill="#00305E" font-family="Open Sans,Open Sans_MSFontService,sans-serif" font-weight="400" font-size="46" transform="matrix(1 0 0 1 2471.25 539)">1</text><text fill="#00305E" font-family="Open Sans,Open Sans_MSFontService,sans-serif" font-weight="400" font-size="74" transform="matrix(1 0 0 1 1873.3 543)">t</text><text fill="#00305E" font-family="Open Sans,Open Sans_MSFontService,sans-serif" font-weight="400" font-size="46" transform="matrix(1 0 0 1 1899.65 543)">1</text><text fill="#00305E" font-family="Open Sans,Open Sans_MSFontService,sans-serif" font-weight="400" font-size="74" transform="matrix(1 0 0 1 2014.79 542)">t</text><text fill="#00305E" font-family="Open Sans,Open Sans_MSFontService,sans-serif" font-weight="400" font-size="46" transform="matrix(1 0 0 1 2041.15 542)">2</text><text fill="#00305E" font-family="Open Sans,Open Sans_MSFontService,sans-serif" font-weight="400" font-size="74" transform="matrix(1 0 0 1 1741.83 543)">t</text><text fill="#00305E" font-family="Open Sans,Open Sans_MSFontService,sans-serif" font-weight="400" font-size="46" transform="matrix(1 0 0 1 1768.18 543)">0</text><path d="M1562.5 488.063 1651.17 488.062 1651.17 494.937 1562.5 494.938ZM1646.59 468.583 1692.42 491.5 1646.59 514.417Z" fill="#54378A"/><path d="M2691.5 487.063 2780.17 487.062 2780.17 493.937 2691.5 493.938ZM2775.59 467.583 2821.42 490.5 2775.59 513.416Z" fill="#54378A"/><text fill="#002060" font-family="Open Sans,Open Sans_MSFontService,sans-serif" font-weight="400" font-size="64" transform="matrix(1 0 0 1 1561.17 480)">IC </text><text fill="#002060" font-family="Open Sans Light,Open Sans Light_MSFontService,sans-serif" font-weight="300" font-size="46" transform="matrix(1 0 0 1 1561.17 540)">(Initial </text><text fill="#002060" font-family="Open Sans Light,Open Sans Light_MSFontService,sans-serif" font-weight="300" font-size="46" transform="matrix(1 0 0 1 1561.17 595)">state</text><text fill="#002060" font-family="Open Sans Light,Open Sans Light_MSFontService,sans-serif" font-weight="300" font-size="46" transform="matrix(1 0 0 1 1662.58 595)">)</text><text fill="#007D40" font-family="Open Sans,Open Sans_MSFontService,sans-serif" font-weight="400" font-size="64" transform="matrix(1 0 0 1 1625.27 367)">BC</text><text fill="#F07D00" font-family="Open Sans,Open Sans_MSFontService,sans-serif" font-weight="400" font-size="55" transform="matrix(1 0 0 1 2751.43 631)">Simul</text><text fill="#F07D00" font-family="Open Sans,Open Sans_MSFontService,sans-serif" font-weight="400" font-size="46" transform="matrix(1 0 0 1 2894.08 631)">. </text><text fill="#F07D00" font-family="Open Sans,Open Sans_MSFontService,sans-serif" font-weight="400" font-size="46" transform="matrix(1 0 0 1 2918.14 631)">Result</text><text fill="#F07D00" font-family="Open Sans Light,Open Sans Light_MSFontService,sans-serif" font-weight="300" font-size="55" transform="matrix(1 0 0 1 2751.43 697)">(</text><text fill="#F07D00" font-family="Open Sans Light,Open Sans Light_MSFontService,sans-serif" font-weight="300" font-size="55" transform="matrix(1 0 0 1 2766.32 697)">Outflow</text><text fill="#F07D00" font-family="Open Sans Light,Open Sans Light_MSFontService,sans-serif" font-weight="300" font-size="55" transform="matrix(1 0 0 1 2959.97 697)">)</text><text fill="#002060" font-family="Open Sans Light,Open Sans Light_MSFontService,sans-serif" font-weight="300" font-size="46" transform="matrix(1 0 0 1 2717.15 467)">Final </text><text fill="#002060" font-family="Open Sans Light,Open Sans Light_MSFontService,sans-serif" font-weight="300" font-size="46" transform="matrix(1 0 0 1 2823.72 467)">state</text></g></svg>