<svg width="3134" height="1632" xmlns="http://www.w3.org/2000/svg" xmlns:xlink="http://www.w3.org/1999/xlink" xml:space="preserve" overflow="hidden"><g transform="translate(-538 -22)"><path d="M614.5 273.5 744.353 273.5 809.279 377.5 874.206 273.5 1393.62 273.5 1393.62 533.5 1497.5 598.5 1393.62 663.5 1393.62 793.5 614.5 793.5 614.5 663.5 718.382 598.5 614.5 533.5Z" stroke="#007D40" stroke-width="9.16667" stroke-miterlimit="8" fill="#E6FFED" fill-rule="evenodd"/><text fill="#007D40" font-family="Open Sans,Open Sans_MSFontService,sans-serif" font-style="italic" font-weight="400" font-size="110" transform="matrix(1 0 0 1 742.878 767)">Hyd</text><text fill="#007D40" font-family="Open Sans,Open Sans_MSFontService,sans-serif" font-style="italic" font-weight="400" font-size="110" transform="matrix(1 0 0 1 931.94 767)">. Model</text><text fill="#007D40" font-family="Open Sans Light,Open Sans Light_MSFontService,sans-serif" font-weight="300" font-size="73" transform="matrix(-1.83697e-16 -1 1 -1.83697e-16 683.26 533)">Param.</text><text fill="#007D40" font-family="Open Sans Light,Open Sans Light_MSFontService,sans-serif" font-weight="300" font-size="73" transform="matrix(-1.83697e-16 -1 1 -1.83697e-16 1372.63 533)">Simul</text><text fill="#007D40" font-family="Open Sans Light,Open Sans Light_MSFontService,sans-serif" font-weight="300" font-size="73" transform="matrix(-1.83697e-16 -1 1 -1.83697e-16 1372.63 351)">.</text><text fill="#007D40" font-family="Open Sans Light,Open Sans Light_MSFontService,sans-serif" font-weight="300" font-size="73" transform="matrix(1 0 0 1 873.45 342)">Forcing</text><text fill="#007D40" font-family="Open Sans Light,Open Sans Light_MSFontService,sans-serif" font-weight="300" font-size="73" transform="matrix(1 0 0 1 1115.22 342)">.</text><path d="M1465.5 273.5 1595.35 273.5 1660.28 377.5 1725.21 273.5 2244.62 273.5 2244.62 533.5 2348.5 598.5 2244.62 663.5 2244.62 793.5 1465.5 793.5 1465.5 663.5 1569.38 598.5 1465.5 533.5Z" stroke="#00305E" stroke-width="9.16667" stroke-miterlimit="8" fill="#F3FFFF" fill-rule="evenodd"/><text fill="#00305E" font-family="Open Sans,Open Sans_MSFontService,sans-serif" font-style="italic" font-weight="400" font-size="110" transform="matrix(1 0 0 1 1593.51 767)">Evalute</text><text fill="#00305E" font-family="Open Sans,Open Sans_MSFontService,sans-serif" font-style="italic" font-weight="400" font-size="110" transform="matrix(1 0 0 1 1973.92 767)">Fct</text><text fill="#00305E" font-family="Open Sans,Open Sans_MSFontService,sans-serif" font-style="italic" font-weight="400" font-size="110" transform="matrix(1 0 0 1 2112.57 767)">.</text><text fill="#00305E" font-family="Open Sans Light,Open Sans Light_MSFontService,sans-serif" font-weight="300" font-size="73" transform="matrix(-1.83697e-16 -1 1 -1.83697e-16 1533.89 533)">Simul</text><text fill="#00305E" font-family="Open Sans Light,Open Sans Light_MSFontService,sans-serif" font-weight="300" font-size="73" transform="matrix(-1.83697e-16 -1 1 -1.83697e-16 1533.89 351)">.</text><text fill="#00305E" font-family="Open Sans Light,Open Sans Light_MSFontService,sans-serif" font-weight="300" font-size="64" transform="matrix(-1.83697e-16 -1 1 -1.83697e-16 2219.8 533)">Perform.</text><text fill="#00305E" font-family="Open Sans Light,Open Sans Light_MSFontService,sans-serif" font-weight="300" font-size="73" transform="matrix(1 0 0 1 1724.08 342)">Observ</text><text fill="#00305E" font-family="Open Sans Light,Open Sans Light_MSFontService,sans-serif" font-weight="300" font-size="73" transform="matrix(1 0 0 1 1960.69 342)">.</text><path d="M2315.5 276.5 2445.5 276.5 2510.5 380.5 2575.5 276.5 3095.5 276.5 3095.5 536.5 3199.5 601.5 3095.5 666.5 3095.5 796.5 2315.5 796.5 2315.5 666.5 2419.5 601.5 2315.5 536.5Z" stroke="#E02D8A" stroke-width="9.16667" stroke-miterlimit="8" fill="#FFF3FF" fill-rule="evenodd"/><text fill="#E02D8A" font-family="Open Sans,Open Sans_MSFontService,sans-serif" font-style="italic" font-weight="400" font-size="110" transform="matrix(1 0 0 1 2444.13 770)">Calibrate</text><text fill="#E02D8A" font-family="Open Sans,Open Sans_MSFontService,sans-serif" font-style="italic" font-weight="400" font-size="110" transform="matrix(1 0 0 1 2915.64 770)">Alg.</text><text fill="#E02D8A" font-family="Open Sans Light,Open Sans Light_MSFontService,sans-serif" font-weight="300" font-size="64" transform="matrix(-1.83697e-16 -1 1 -1.83697e-16 2381.06 536)">Perform.</text><text fill="#E02D8A" font-family="Open Sans Light,Open Sans Light_MSFontService,sans-serif" font-weight="300" font-size="73" transform="matrix(-1.83697e-16 -1 1 -1.83697e-16 3073.88 536)">Param.</text><text fill="#E02D8A" font-family="Open Sans Light,Open Sans Light_MSFontService,sans-serif" font-weight="300" font-size="73" transform="matrix(1 0 0 1 2574.71 345)">Param. </text><text fill="#E02D8A" font-family="Open Sans Light,Open Sans Light_MSFontService,sans-serif" font-weight="300" font-size="73" transform="matrix(1 0 0 1 2574.71 433)">Range</text><path d="M3198.46 597.358 3230.55 597.358 3230.55 605.379 3198.46 605.379ZM3254.61 597.358 3286.69 597.358 3286.69 605.379 3254.61 605.379ZM3310.76 597.358 3318.76 597.358 3318.76 629.457 3310.74 629.457 3310.74 601.368 3314.75 605.379 3310.76 605.379ZM3318.76 653.52 3318.76 685.603 3310.74 685.603 3310.74 653.52ZM3318.76 709.666 3318.76 741.749 3310.74 741.749 3310.74 709.666ZM3318.76 765.812 3318.76 797.895 3310.74 797.895 3310.74 765.812ZM3318.76 821.957 3318.76 854.041 3310.74 854.041 3310.74 821.957ZM3318.76 878.103 3318.76 898.996 3299.55 898.996 3299.55 890.976 3314.75 890.976 3310.74 894.986 3310.74 878.103ZM3275.49 898.996 3243.4 898.996 3243.4 890.976 3275.49 890.976ZM3219.34 898.996 3187.26 898.996 3187.26 890.976 3219.34 890.976ZM3163.2 898.996 3131.11 898.996 3131.11 890.976 3163.2 890.976ZM3107.05 898.996 3074.97 898.996 3074.97 890.976 3107.05 890.976ZM3050.9 898.996 3018.82 898.996 3018.82 890.976 3050.9 890.976ZM2994.76 898.996 2962.68 898.996 2962.68 890.976 2994.76 890.976ZM2938.61 898.996 2906.53 898.996 2906.53 890.976 2938.61 890.976ZM2882.47 898.996 2850.38 898.996 2850.38 890.976 2882.47 890.976ZM2826.32 898.996 2794.24 898.996 2794.24 890.976 2826.32 890.976ZM2770.18 898.996 2738.09 898.996 2738.09 890.976 2770.18 890.976ZM2714.03 898.996 2681.95 898.996 2681.95 890.976 2714.03 890.976ZM2657.88 898.996 2625.8 898.996 2625.8 890.976 2657.88 890.976ZM2601.74 898.996 2569.65 898.996 2569.65 890.976 2601.74 890.976ZM2545.59 898.996 2513.51 898.996 2513.51 890.976 2545.59 890.976ZM2489.45 898.996 2457.36 898.996 2457.36 890.976 2489.45 890.976ZM2433.3 898.996 2401.22 898.996 2401.22 890.976 2433.3 890.976ZM2377.15 898.996 2345.07 898.996 2345.07 890.976 2377.15 890.976ZM2321.01 898.996 2288.93 898.996 2288.93 890.976 2321.01 890.976ZM2264.86 898.996 2232.78 898.996 2232.78 890.976 2264.86 890.976ZM2208.72 898.996 2176.63 898.996 2176.63 890.976 2208.72 890.976ZM2152.57 898.996 2120.49 898.996 2120.49 890.976 2152.57 890.976ZM2096.43 898.996 2064.34 898.996 2064.34 890.976 2096.43 890.976ZM2040.28 898.996 2008.2 898.996 2008.2 890.976 2040.28 890.976ZM1984.13 898.996 1952.05 898.996 1952.05 890.976 1984.13 890.976ZM1927.99 898.996 1895.9 898.996 1895.9 890.976 1927.99 890.976ZM1871.84 898.996 1839.76 898.996 1839.76 890.976 1871.84 890.976ZM1815.7 898.996 1783.61 898.996 1783.61 890.976 1815.7 890.976ZM1759.55 898.996 1727.47 898.996 1727.47 890.976 1759.55 890.976ZM1703.4 898.996 1671.32 898.996 1671.32 890.976 1703.4 890.976ZM1647.26 898.996 1615.18 898.996 1615.18 890.976 1647.26 890.976ZM1591.11 898.996 1559.03 898.996 1559.03 890.976 1591.11 890.976ZM1534.97 898.996 1502.88 898.996 1502.88 890.976 1534.97 890.976ZM1478.82 898.996 1446.74 898.996 1446.74 890.976 1478.82 890.976ZM1422.68 898.996 1390.59 898.996 1390.59 890.976 1422.68 890.976ZM1366.53 898.996 1334.45 898.996 1334.45 890.976 1366.53 890.976ZM1310.38 898.996 1278.3 898.996 1278.3 890.976 1310.38 890.976ZM1254.24 898.996 1222.15 898.996 1222.15 890.976 1254.24 890.976ZM1198.09 898.996 1166.01 898.996 1166.01 890.976 1198.09 890.976ZM1141.95 898.996 1109.86 898.996 1109.86 890.976 1141.95 890.976ZM1085.8 898.996 1053.72 898.996 1053.72 890.976 1085.8 890.976ZM1029.65 898.996 997.571 898.996 997.571 890.976 1029.65 890.976ZM973.509 898.996 941.426 898.996 941.426 890.976 973.509 890.976ZM917.363 898.996 885.28 898.996 885.28 890.976 917.363 890.976ZM861.217 898.996 829.134 898.996 829.134 890.976 861.217 890.976ZM805.071 898.996 772.988 898.996 772.988 890.976 805.071 890.976ZM748.926 898.996 716.842 898.996 716.842 890.976 748.926 890.976ZM692.78 898.996 660.696 898.996 660.696 890.976 692.78 890.976ZM636.634 898.996 604.551 898.996 604.551 890.976 636.634 890.976ZM580.488 898.996 548.405 898.996 548.405 890.976 580.488 890.976ZM538.547 876.77 538.547 844.687 546.568 844.687 546.568 876.77ZM538.547 820.625 538.547 788.541 546.568 788.541 546.568 820.625ZM538.547 764.479 538.547 732.395 546.568 732.395 546.568 764.479ZM538.547 708.333 538.547 676.25 546.568 676.25 546.568 708.333ZM538.547 652.187 538.547 620.104 546.568 620.104 546.568 652.187ZM544.517 593.99 576.6 593.99 576.6 602.011 544.517 602.011ZM600.663 593.99 632.746 593.99 632.746 602.011 600.663 602.011ZM617.436 571.578 664.997 598 617.436 624.423C615.5 625.498 613.059 624.801 611.983 622.864 610.907 620.928 611.605 618.487 613.541 617.411L654.791 594.494 654.791 601.506 613.541 578.589C611.605 577.514 610.907 575.072 611.983 573.136 613.059 571.2 615.5 570.502 617.436 571.578Z" fill="#E02D8A"/><text fill="#E02D8A" font-family="Open Sans,Open Sans_MSFontService,sans-serif" font-weight="400" font-size="110" transform="matrix(-1.83697e-16 -1 1 -1.83697e-16 3273.36 875)">Loop</text><path d="M3371.5 533.5 3475.44 598.461" stroke="#E02D8A" stroke-width="9.16667" stroke-miterlimit="8" fill="none" fill-rule="evenodd"/><path d="M0 0 103.937 64.9606" stroke="#E02D8A" stroke-width="9.16667" stroke-miterlimit="8" fill="none" fill-rule="evenodd" transform="matrix(-1 0 0 1 3475.44 598.5)"/><path d="M0 0 0.000360892 259.843" stroke="#E02D8A" stroke-width="9.16667" stroke-miterlimit="8" fill="none" fill-rule="evenodd" transform="matrix(1 0 0 -1 3371.5 533.343)"/><path d="M0 0 1.91201 133.289" stroke="#E02D8A" stroke-width="9.16667" stroke-miterlimit="8" fill="none" fill-rule="evenodd" transform="matrix(-1 0 0 1 3371.41 663.5)"/><text fill="#E02D8A" font-family="Open Sans Light,Open Sans Light_MSFontService,sans-serif" font-weight="300" font-size="73" transform="matrix(-1.83697e-16 -1 1 -1.83697e-16 3266.51 530)">Cali.</text><text fill="#E02D8A" font-family="Open Sans Light,Open Sans Light_MSFontService,sans-serif" font-weight="300" font-size="73" transform="matrix(-1.83697e-16 -1 1 -1.83697e-16 3266.51 394)">-</text><text fill="#E02D8A" font-family="Open Sans Light,Open Sans Light_MSFontService,sans-serif" font-weight="300" font-size="73" transform="matrix(-1.83697e-16 -1 1 -1.83697e-16 3266.51 371)">ed</text><text fill="#E02D8A" font-family="Open Sans Light,Open Sans Light_MSFontService,sans-serif" font-weight="300" font-size="73" transform="matrix(-1.83697e-16 -1 1 -1.83697e-16 3354.51 530)">Param.</text><path d="M3305.5 1215.5 3409.44 1280.46" stroke="#00305E" stroke-width="9.16667" stroke-miterlimit="8" fill="none" fill-rule="evenodd"/><path d="M0 0 103.937 64.9606" stroke="#00305E" stroke-width="9.16667" stroke-miterlimit="8" fill="none" fill-rule="evenodd" transform="matrix(-1 0 0 1 3409.44 1280.5)"/><path d="M0 0 0.000360892 259.843" stroke="#00305E" stroke-width="9.16667" stroke-miterlimit="8" fill="none" fill-rule="evenodd" transform="matrix(1 0 0 -1 3305.5 1215.34)"/><path d="M0 0 1.91201 133.289" stroke="#00305E" stroke-width="9.16667" stroke-miterlimit="8" fill="none" fill-rule="evenodd" transform="matrix(-1 0 0 1 3305.41 1345.5)"/><path d="M3234.5 1217.5 3338.44 1282.46" stroke="#007D40" stroke-width="9.16667" stroke-miterlimit="8" fill="none" fill-rule="evenodd"/><path d="M0 0 103.937 64.9606" stroke="#007D40" stroke-width="9.16667" stroke-miterlimit="8" fill="none" fill-rule="evenodd" transform="matrix(-1 0 0 1 3338.44 1282.5)"/><path d="M0 0 0.000360892 259.843" stroke="#007D40" stroke-width="9.16667" stroke-miterlimit="8" fill="none" fill-rule="evenodd" transform="matrix(1 0 0 -1 3234.5 1217.34)"/><path d="M0 0 1.91201 133.289" stroke="#007D40" stroke-width="9.16667" stroke-miterlimit="8" fill="none" fill-rule="evenodd" transform="matrix(-1 0 0 1 3234.41 1347.5)"/><text fill="#007D40" font-family="Open Sans Light,Open Sans Light_MSFontService,sans-serif" font-weight="300" font-size="73" transform="matrix(1 0 0 1 2953.64 1024)">Forcing</text><text fill="#007D40" font-family="Open Sans Light,Open Sans Light_MSFontService,sans-serif" font-weight="300" font-size="73" transform="matrix(1 0 0 1 3195.41 1024)">.</text><text fill="#00305E" font-family="Open Sans Light,Open Sans Light_MSFontService,sans-serif" font-weight="300" font-size="73" transform="matrix(1 0 0 1 2953.64 1218)">Observ</text><text fill="#00305E" font-family="Open Sans Light,Open Sans Light_MSFontService,sans-serif" font-weight="300" font-size="73" transform="matrix(1 0 0 1 3190.25 1218)">.</text><text fill="#E02D8A" font-family="Open Sans Light,Open Sans Light_MSFontService,sans-serif" font-weight="300" font-size="64" transform="matrix(1 0 0 1 2953.64 1118)">Param. R</text><path d="M3368.5 1217.5 3472.44 1282.46" stroke="#E02D8A" stroke-width="9.16667" stroke-miterlimit="8" fill="none" fill-rule="evenodd"/><path d="M0 0 103.937 64.9606" stroke="#E02D8A" stroke-width="9.16667" stroke-miterlimit="8" fill="none" fill-rule="evenodd" transform="matrix(-1 0 0 1 3472.44 1282.5)"/><path d="M0 0 0.000360892 259.843" stroke="#E02D8A" stroke-width="9.16667" stroke-miterlimit="8" fill="none" fill-rule="evenodd" transform="matrix(1 0 0 -1 3368.5 1217.34)"/><path d="M0 0 1.91201 133.289" stroke="#E02D8A" stroke-width="9.16667" stroke-miterlimit="8" fill="none" fill-rule="evenodd" transform="matrix(-1 0 0 1 3368.41 1347.5)"/><text fill="#E02D8A" font-family="Open Sans Light,Open Sans Light_MSFontService,sans-serif" font-weight="300" font-size="73" transform="matrix(1 0 0 1 3384.82 1108)">Cali.</text><text fill="#E02D8A" font-family="Open Sans Light,Open Sans Light_MSFontService,sans-serif" font-weight="300" font-size="73" transform="matrix(1 0 0 1 3520.02 1108)">-</text><text fill="#E02D8A" font-family="Open Sans Light,Open Sans Light_MSFontService,sans-serif" font-weight="300" font-size="73" transform="matrix(1 0 0 1 3543.51 1108)">ed</text><text fill="#E02D8A" font-family="Open Sans Light,Open Sans Light_MSFontService,sans-serif" font-weight="300" font-size="73" transform="matrix(1 0 0 1 3384.82 1196)">Param.</text><text fill="#E02D8A" font-family="Open Sans,Open Sans_MSFontService,sans-serif" font-style="italic" font-weight="400" font-size="110" transform="matrix(1 0 0 1 2953.64 1559)">Calibrate</text><path d="M814.083 22.4998 814.084 324.869 804.917 324.869 804.917 22.4998ZM836.424 285.845 809.5 334.307 782.577 285.845C781.348 283.632 782.145 280.842 784.358 279.613 786.571 278.383 789.361 279.181 790.59 281.393L813.507 322.643 805.494 322.643 828.41 281.393C829.64 279.181 832.43 278.383 834.643 279.613 836.856 280.842 837.653 283.632 836.424 285.845Z" fill="#00B0F0"/><rect x="830" y="24.0001" width="104" height="104" fill="#00B0F0"/><text fill="#FFFFFF" font-family="Open Sans,Open Sans_MSFontService,sans-serif" font-weight="700" font-size="55" transform="matrix(1 0 0 1 842.326 95)">1.1</text><rect x="830" y="155" width="104" height="104" fill="#00B0F0"/><text fill="#FFFFFF" font-family="Open Sans,Open Sans_MSFontService,sans-serif" font-weight="700" font-size="55" transform="matrix(1 0 0 1 842.326 226)">1.2</text><path d="M3.88666-2.42916 23.32 28.6641 15.5466 33.5224-3.88666 2.42916ZM37.8949 51.9841 57.3282 83.0773 49.5549 87.9357 30.1216 56.8424ZM71.9032 106.397 91.3365 137.491 83.5632 142.349 64.1299 111.256ZM105.911 160.811 125.345 191.904 117.571 196.762 98.1381 165.669ZM127.065 152.506 129.919 207.871 81.4036 181.044C79.1884 179.819 78.3856 177.031 79.6105 174.815 80.8354 172.6 83.6241 171.797 85.8393 173.022L127.135 195.857 120.34 200.103 117.911 152.978C117.781 150.45 119.724 148.295 122.252 148.165 124.78 148.034 126.935 149.978 127.065 152.506Z" fill="#00B0F0" transform="matrix(1 0 0 -1 779.5 964.374)"/><path d="M845 930C845 901.281 868.057 878 896.5 878 924.943 878 948 901.281 948 930 948 958.719 924.943 982 896.5 982 868.057 982 845 958.719 845 930Z" fill="#00B0F0" fill-rule="evenodd"/><text fill="#FFFFFF" font-family="Open Sans,Open Sans_MSFontService,sans-serif" font-weight="700" font-size="55" transform="matrix(1 0 0 1 880.727 949)">1</text><path d="M3.88666-2.42916 23.32 28.6641 15.5466 33.5224-3.88666 2.42916ZM37.8949 51.9841 57.3282 83.0773 49.5549 87.9357 30.1216 56.8424ZM71.9032 106.397 91.3365 137.491 83.5632 142.349 64.1299 111.256ZM105.911 160.811 125.345 191.904 117.571 196.762 98.1381 165.669ZM127.065 152.506 129.919 207.871 81.4036 181.044C79.1884 179.819 78.3856 177.031 79.6105 174.815 80.8354 172.6 83.6241 171.797 85.8393 173.022L127.135 195.857 120.34 200.103 117.911 152.978C117.781 150.45 119.724 148.295 122.252 148.165 124.78 148.034 126.935 149.978 127.065 152.506Z" fill="#00B0F0" transform="matrix(1 0 0 -1 1630.5 945.374)"/><path d="M1695 912C1695 883.281 1718.28 860 1747 860 1775.72 860 1799 883.281 1799 912 1799 940.719 1775.72 964 1747 964 1718.28 964 1695 940.719 1695 912Z" fill="#00B0F0" fill-rule="evenodd"/><text fill="#FFFFFF" font-family="Open Sans,Open Sans_MSFontService,sans-serif" font-weight="700" font-size="55" transform="matrix(1 0 0 1 1731.35 931)">2</text><path d="M1661.08 128.5 1661.08 313.94 1651.92 313.94 1651.92 128.5ZM1683.42 274.916 1656.5 323.378 1629.58 274.916C1628.35 272.703 1629.15 269.913 1631.36 268.684 1633.57 267.454 1636.36 268.252 1637.59 270.464L1660.51 311.714 1652.49 311.714 1675.41 270.464C1676.64 268.252 1679.43 267.454 1681.64 268.684 1683.86 269.913 1684.65 272.703 1683.42 274.916Z" fill="#00B0F0"/><rect x="1680" y="135" width="104" height="104" fill="#00B0F0"/><text fill="#FFFFFF" font-family="Open Sans,Open Sans_MSFontService,sans-serif" font-weight="700" font-size="55" transform="matrix(1 0 0 1 1716.54 206)">2</text><path d="M3.88666-2.42916 23.32 28.6641 15.5466 33.5224-3.88666 2.42916ZM37.8949 51.9841 57.3282 83.0773 49.5549 87.9357 30.1216 56.8424ZM71.9032 106.397 91.3365 137.491 83.5632 142.349 64.1299 111.256ZM105.911 160.811 125.345 191.904 117.571 196.762 98.1381 165.669ZM127.065 152.506 129.919 207.871 81.4036 181.044C79.1884 179.819 78.3856 177.031 79.6105 174.815 80.8354 172.6 83.6241 171.797 85.8393 173.022L127.135 195.857 120.34 200.103 117.911 152.978C117.781 150.45 119.724 148.295 122.252 148.165 124.78 148.034 126.935 149.978 127.065 152.506Z" fill="#00B0F0" transform="matrix(1 0 0 -1 2469.5 943.374)"/><path d="M2534 909.5C2534 881.057 2557.28 858 2586 858 2614.72 858 2638 881.057 2638 909.5 2638 937.943 2614.72 961 2586 961 2557.28 961 2534 937.943 2534 909.5Z" fill="#00B0F0" fill-rule="evenodd"/><text fill="#FFFFFF" font-family="Open Sans,Open Sans_MSFontService,sans-serif" font-weight="700" font-size="50" transform="matrix(1 0 0 1 2549.88 926)">3.1</text><path d="M3.88666-2.42916 23.32 28.6641 15.5466 33.5224-3.88666 2.42916ZM37.8949 51.9841 57.3282 83.0773 49.5549 87.9357 30.1216 56.8424ZM71.9032 106.397 91.3365 137.491 83.5632 142.349 64.1299 111.256ZM105.911 160.811 125.345 191.904 117.571 196.762 98.1381 165.669ZM127.065 152.506 129.919 207.871 81.4036 181.044C79.1884 179.819 78.3856 177.031 79.6105 174.815 80.8354 172.6 83.6241 171.797 85.8393 173.022L127.135 195.857 120.34 200.103 117.911 152.978C117.781 150.45 119.724 148.295 122.252 148.165 124.78 148.034 126.935 149.978 127.065 152.506Z" fill="#00B0F0" transform="matrix(1 0 0 -1 2696.5 1105.37)"/><path d="M2761 1071C2761 1042.28 2784.06 1019 2812.5 1019 2840.94 1019 2864 1042.28 2864 1071 2864 1099.72 2840.94 1123 2812.5 1123 2784.06 1123 2761 1099.72 2761 1071Z" fill="#00B0F0" fill-rule="evenodd"/><text fill="#FFFFFF" font-family="Open Sans,Open Sans_MSFontService,sans-serif" font-weight="700" font-size="50" transform="matrix(1 0 0 1 2776.71 1088)">3.2</text><path d="M2517.08 130.5 2517.08 315.94 2507.92 315.94 2507.92 130.5ZM2539.42 276.916 2512.5 325.378 2485.58 276.916C2484.35 274.704 2485.15 271.913 2487.36 270.684 2489.57 269.455 2492.36 270.252 2493.59 272.465L2516.51 313.714 2508.49 313.714 2531.41 272.464C2532.64 270.252 2535.43 269.454 2537.64 270.684 2539.86 271.913 2540.65 274.703 2539.42 276.916Z" fill="#00B0F0"/><rect x="2537" y="137" width="103" height="104" fill="#00B0F0"/><text fill="#FFFFFF" font-family="Open Sans,Open Sans_MSFontService,sans-serif" font-weight="700" font-size="55" transform="matrix(1 0 0 1 2572.75 208)">3</text></g></svg>