<svg width="2655" height="1655" xmlns="http://www.w3.org/2000/svg" xmlns:xlink="http://www.w3.org/1999/xlink" xml:space="preserve" overflow="hidden"><defs><linearGradient x1="2369" y1="621" x2="2369" y2="907" gradientUnits="userSpaceOnUse" spreadMethod="reflect" id="fill0"><stop offset="0" stop-color="#004588"/><stop offset="0.00540541" stop-color="#014688"/><stop offset="0.0108108" stop-color="#034889"/><stop offset="0.0162162" stop-color="#054A8A"/><stop offset="0.0216216" stop-color="#074C8B"/><stop offset="0.027027" stop-color="#084E8C"/><stop offset="0.0324324" stop-color="#0A508C"/><stop offset="0.0378378" stop-color="#0C518D"/><stop offset="0.0432432" stop-color="#0E538E"/><stop offset="0.0486486" stop-color="#0F558F"/><stop offset="0.0540541" stop-color="#115790"/><stop offset="0.0594595" stop-color="#135990"/><stop offset="0.0648649" stop-color="#155A91"/><stop offset="0.0702703" stop-color="#165C92"/><stop offset="0.0756757" stop-color="#185E93"/><stop offset="0.0810811" stop-color="#1A6093"/><stop offset="0.0864865" stop-color="#1B6294"/><stop offset="0.0918919" stop-color="#1D6395"/><stop offset="0.0972973" stop-color="#1F6596"/><stop offset="0.102703" stop-color="#206796"/><stop offset="0.108108" stop-color="#226897"/><stop offset="0.113514" stop-color="#236A98"/><stop offset="0.118919" stop-color="#256C99"/><stop offset="0.124324" stop-color="#276D99"/><stop offset="0.12973" stop-color="#286F9A"/><stop offset="0.135135" stop-color="#2A719B"/><stop offset="0.140541" stop-color="#2C729C"/><stop offset="0.145946" stop-color="#2D749C"/><stop offset="0.151351" stop-color="#2F769D"/><stop offset="0.156757" stop-color="#30779E"/><stop offset="0.162162" stop-color="#32799E"/><stop offset="0.167568" stop-color="#337B9F"/><stop offset="0.172973" stop-color="#357CA0"/><stop offset="0.178378" stop-color="#367EA0"/><stop offset="0.183784" stop-color="#387FA1"/><stop offset="0.189189" stop-color="#3981A2"/><stop offset="0.194595" stop-color="#3B83A3"/><stop offset="0.2" stop-color="#3C84A3"/><stop offset="0.205405" stop-color="#3E86A4"/><stop offset="0.210811" stop-color="#3F87A5"/><stop offset="0.216216" stop-color="#4189A5"/><stop offset="0.221622" stop-color="#428AA6"/><stop offset="0.227027" stop-color="#448CA7"/><stop offset="0.232432" stop-color="#458DA7"/><stop offset="0.237838" stop-color="#478FA8"/><stop offset="0.243243" stop-color="#4890A8"/><stop offset="0.248649" stop-color="#4992A9"/><stop offset="0.254054" stop-color="#4B93AA"/><stop offset="0.259459" stop-color="#4C95AA"/><stop offset="0.264865" stop-color="#4E96AB"/><stop offset="0.27027" stop-color="#4F97AC"/><stop offset="0.275676" stop-color="#5099AC"/><stop offset="0.281081" stop-color="#529AAD"/><stop offset="0.286486" stop-color="#539CAD"/><stop offset="0.291892" stop-color="#549DAE"/><stop offset="0.297297" stop-color="#569FAF"/><stop offset="0.302703" stop-color="#57A0AF"/><stop offset="0.308108" stop-color="#58A1B0"/><stop offset="0.313514" stop-color="#5AA3B0"/><stop offset="0.318919" stop-color="#5BA4B1"/><stop offset="0.324324" stop-color="#5CA5B2"/><stop offset="0.32973" stop-color="#5DA7B2"/><stop offset="0.335135" stop-color="#5FA8B3"/><stop offset="0.340541" stop-color="#60A9B3"/><stop offset="0.345946" stop-color="#61ABB4"/><stop offset="0.351351" stop-color="#62ACB5"/><stop offset="0.356757" stop-color="#64ADB5"/><stop offset="0.362162" stop-color="#65AEB6"/><stop offset="0.367568" stop-color="#66B0B6"/><stop offset="0.372973" stop-color="#67B1B7"/><stop offset="0.378378" stop-color="#69B2B7"/><stop offset="0.383784" stop-color="#6AB3B8"/><stop offset="0.389189" stop-color="#6BB5B8"/><stop offset="0.394595" stop-color="#6CB6B9"/><stop offset="0.4" stop-color="#6DB7B9"/><stop offset="0.405405" stop-color="#6EB8BA"/><stop offset="0.410811" stop-color="#6FBABA"/><stop offset="0.416216" stop-color="#71BBBB"/><stop offset="0.421622" stop-color="#72BCBB"/><stop offset="0.427027" stop-color="#73BDBC"/><stop offset="0.432432" stop-color="#74BEBC"/><stop offset="0.437838" stop-color="#75BFBD"/><stop offset="0.443243" stop-color="#76C0BD"/><stop offset="0.448649" stop-color="#77C2BE"/><stop offset="0.454054" stop-color="#78C3BE"/><stop offset="0.459459" stop-color="#79C4BF"/><stop offset="0.464865" stop-color="#7AC5BF"/><stop offset="0.47027" stop-color="#7BC6C0"/><stop offset="0.475676" stop-color="#7CC7C0"/><stop offset="0.481081" stop-color="#7DC8C1"/><stop offset="0.486486" stop-color="#7EC9C1"/><stop offset="0.491892" stop-color="#7FCAC2"/><stop offset="0.497297" stop-color="#80CBC2"/><stop offset="0.502703" stop-color="#81CCC3"/><stop offset="0.508108" stop-color="#82CDC3"/><stop offset="0.513514" stop-color="#83CEC4"/><stop offset="0.518919" stop-color="#84CFC4"/><stop offset="0.524324" stop-color="#85D0C4"/><stop offset="0.52973" stop-color="#86D1C5"/><stop offset="0.535135" stop-color="#87D2C5"/><stop offset="0.540541" stop-color="#88D3C6"/><stop offset="0.545946" stop-color="#89D4C6"/><stop offset="0.551351" stop-color="#8AD5C6"/><stop offset="0.556757" stop-color="#8BD6C7"/><stop offset="0.562162" stop-color="#8CD7C7"/><stop offset="0.567568" stop-color="#8DD8C8"/><stop offset="0.572973" stop-color="#8DD9C8"/><stop offset="0.578378" stop-color="#8EDAC8"/><stop offset="0.583784" stop-color="#8FDBC9"/><stop offset="0.589189" stop-color="#90DBC9"/><stop offset="0.594595" stop-color="#91DCCA"/><stop offset="0.6" stop-color="#92DDCA"/><stop offset="0.605405" stop-color="#92DECA"/><stop offset="0.610811" stop-color="#93DFCB"/><stop offset="0.616216" stop-color="#94E0CB"/><stop offset="0.621622" stop-color="#95E0CB"/><stop offset="0.627027" stop-color="#95E1CC"/><stop offset="0.632432" stop-color="#96E2CC"/><stop offset="0.637838" stop-color="#97E3CC"/><stop offset="0.643243" stop-color="#98E4CD"/><stop offset="0.648649" stop-color="#98E4CD"/><stop offset="0.654054" stop-color="#99E5CD"/><stop offset="0.659459" stop-color="#9AE6CE"/><stop offset="0.664865" stop-color="#9BE7CE"/><stop offset="0.67027" stop-color="#9BE7CE"/><stop offset="0.675676" stop-color="#9CE8CF"/><stop offset="0.681081" stop-color="#9DE9CF"/><stop offset="0.686486" stop-color="#9DE9CF"/><stop offset="0.691892" stop-color="#9EEAD0"/><stop offset="0.697297" stop-color="#9FEBD0"/><stop offset="0.702703" stop-color="#9FEBD0"/><stop offset="0.708108" stop-color="#A0ECD0"/><stop offset="0.713513" stop-color="#A0EDD1"/><stop offset="0.718919" stop-color="#A1EDD1"/><stop offset="0.724324" stop-color="#A2EED1"/><stop offset="0.72973" stop-color="#A2EED2"/><stop offset="0.735135" stop-color="#A3EFD2"/><stop offset="0.740541" stop-color="#A3F0D2"/><stop offset="0.745946" stop-color="#A4F0D2"/><stop offset="0.751351" stop-color="#A4F1D3"/><stop offset="0.756757" stop-color="#A5F1D3"/><stop offset="0.762162" stop-color="#A5F2D3"/><stop offset="0.767568" stop-color="#A6F2D3"/><stop offset="0.772973" stop-color="#A6F3D3"/><stop offset="0.778378" stop-color="#A7F3D4"/><stop offset="0.783784" stop-color="#A7F4D4"/><stop offset="0.789189" stop-color="#A8F4D4"/><stop offset="0.794595" stop-color="#A8F5D4"/><stop offset="0.8" stop-color="#A9F5D5"/><stop offset="0.805405" stop-color="#A9F6D5"/><stop offset="0.810811" stop-color="#AAF6D5"/><stop offset="0.816216" stop-color="#AAF7D5"/><stop offset="0.821622" stop-color="#AAF7D5"/><stop offset="0.827027" stop-color="#ABF8D5"/><stop offset="0.832432" stop-color="#ABF8D6"/><stop offset="0.837838" stop-color="#ACF8D6"/><stop offset="0.843243" stop-color="#ACF9D6"/><stop offset="0.848649" stop-color="#ACF9D6"/><stop offset="0.854054" stop-color="#ADF9D6"/><stop offset="0.859459" stop-color="#ADFAD6"/><stop offset="0.864865" stop-color="#ADFAD7"/><stop offset="0.87027" stop-color="#AEFAD7"/><stop offset="0.875676" stop-color="#AEFBD7"/><stop offset="0.881081" stop-color="#AEFBD7"/><stop offset="0.886486" stop-color="#AEFBD7"/><stop offset="0.891892" stop-color="#AFFCD7"/><stop offset="0.897297" stop-color="#AFFCD7"/><stop offset="0.902703" stop-color="#AFFCD7"/><stop offset="0.908108" stop-color="#AFFCD8"/><stop offset="0.913514" stop-color="#B0FDD8"/><stop offset="0.918919" stop-color="#B0FDD8"/><stop offset="0.924324" stop-color="#B0FDD8"/><stop offset="0.92973" stop-color="#B0FDD8"/><stop offset="0.935135" stop-color="#B0FDD8"/><stop offset="0.940541" stop-color="#B1FED8"/><stop offset="0.945946" stop-color="#B1FED8"/><stop offset="0.951351" stop-color="#B1FED8"/><stop offset="0.956757" stop-color="#B1FED8"/><stop offset="0.962162" stop-color="#B1FED8"/><stop offset="0.967568" stop-color="#B1FED8"/><stop offset="0.972973" stop-color="#B1FED8"/><stop offset="0.978378" stop-color="#B1FED8"/><stop offset="0.983784" stop-color="#B1FED8"/><stop offset="0.989189" stop-color="#B1FED8"/><stop offset="0.994595" stop-color="#B1FED8"/><stop offset="1" stop-color="#B2FFD9"/></linearGradient></defs><g transform="translate(-572 -78)"><rect x="1039.5" y="305.5" width="1585" height="1169" stroke="#F07D00" stroke-width="11.4583" stroke-miterlimit="8" stroke-dasharray="91.6667 34.375" fill="none"/><text fill="#FFC89F" font-family="Open Sans,Open Sans_MSFontService,sans-serif" font-weight="400" font-size="83" transform="matrix(1 0 0 1 1171.29 182)">Plot</text><text fill="#FFC89F" font-family="Open Sans,Open Sans_MSFontService,sans-serif" font-weight="400" font-size="83" transform="matrix(1 0 0 1 1320.82 182)">-</text><text fill="#FFC89F" font-family="Open Sans,Open Sans_MSFontService,sans-serif" font-weight="400" font-size="83" transform="matrix(1 0 0 1 1347.17 182)">Background</text><text fill="#F07D00" font-family="Open Sans,Open Sans_MSFontService,sans-serif" font-weight="400" font-size="83" transform="matrix(1 0 0 1 1176.17 280)">Plot</text><text fill="#F07D00" font-family="Open Sans,Open Sans_MSFontService,sans-serif" font-weight="400" font-size="83" transform="matrix(1 0 0 1 1325.7 280)">-</text><text fill="#F07D00" font-family="Open Sans,Open Sans_MSFontService,sans-serif" font-weight="400" font-size="83" transform="matrix(1 0 0 1 1352.05 280)">Margin</text><text fill="#FFC000" font-family="Open Sans,Open Sans_MSFontService,sans-serif" font-weight="400" font-size="83" transform="matrix(1 0 0 1 1176.16 414)">Plot</text><text fill="#FFC000" font-family="Open Sans,Open Sans_MSFontService,sans-serif" font-weight="400" font-size="83" transform="matrix(1 0 0 1 1325.7 414)">-</text><text fill="#FFC000" font-family="Open Sans,Open Sans_MSFontService,sans-serif" font-weight="400" font-size="83" transform="matrix(1 0 0 1 1352.05 414)">Title</text><rect x="1117" y="450" width="1429" height="975" fill="#FFC89F"/><rect x="1238" y="450" width="1040" height="858" fill="#E8412C"/><path d="M1239.5 450.5 1239.5 1307.98" stroke="#005E30" stroke-width="9.16667" stroke-miterlimit="8" fill="none" fill-rule="evenodd"/><path d="M1236.5 1309.5 2275.87 1309.5" stroke="#005E30" stroke-width="9.16667" stroke-miterlimit="8" fill="none" fill-rule="evenodd"/><path d="M1215.5 454.5 1241.48 454.5" stroke="#18FF8E" stroke-width="9.16667" stroke-miterlimit="8" fill="none" fill-rule="evenodd"/><path d="M1215.5 625.5 1241.48 625.5" stroke="#18FF8E" stroke-width="9.16667" stroke-miterlimit="8" fill="none" fill-rule="evenodd"/><path d="M1215.5 796.5 1241.48 796.5" stroke="#18FF8E" stroke-width="9.16667" stroke-miterlimit="8" fill="none" fill-rule="evenodd"/><path d="M1215.5 967.5 1241.48 967.501" stroke="#18FF8E" stroke-width="9.16667" stroke-miterlimit="8" fill="none" fill-rule="evenodd"/><path d="M1215.5 1138.5 1241.48 1138.5" stroke="#18FF8E" stroke-width="9.16667" stroke-miterlimit="8" fill="none" fill-rule="evenodd"/><path d="M1215.5 1309.5 1241.48 1309.5" stroke="#18FF8E" stroke-width="9.16667" stroke-miterlimit="8" fill="none" fill-rule="evenodd"/><path d="M1239.5 1309.5 1239.5 1335.48" stroke="#18FF8E" stroke-width="9.16667" stroke-miterlimit="8" fill="none" fill-rule="evenodd"/><path d="M1446.5 1309.5 1446.5 1335.48" stroke="#18FF8E" stroke-width="9.16667" stroke-miterlimit="8" fill="none" fill-rule="evenodd"/><path d="M1653.5 1309.5 1653.5 1335.48" stroke="#18FF8E" stroke-width="9.16667" stroke-miterlimit="8" fill="none" fill-rule="evenodd"/><path d="M1861.5 1309.5 1861.5 1335.48" stroke="#18FF8E" stroke-width="9.16667" stroke-miterlimit="8" fill="none" fill-rule="evenodd"/><path d="M2068.5 1309.5 2068.5 1335.48" stroke="#18FF8E" stroke-width="9.16667" stroke-miterlimit="8" fill="none" fill-rule="evenodd"/><path d="M2273.5 1309.5 2273.5 1335.48" stroke="#18FF8E" stroke-width="9.16667" stroke-miterlimit="8" fill="none" fill-rule="evenodd"/><text fill="#50841A" font-family="Open Sans,Open Sans_MSFontService,sans-serif" font-weight="400" font-size="83" transform="matrix(1 0 0 1 1510.78 1424)">Axis</text><text fill="#50841A" font-family="Open Sans,Open Sans_MSFontService,sans-serif" font-weight="400" font-size="83" transform="matrix(1 0 0 1 1666.04 1424)">-</text><text fill="#50841A" font-family="Open Sans,Open Sans_MSFontService,sans-serif" font-weight="400" font-size="83" transform="matrix(1 0 0 1 1692.39 1424)">X</text><text fill="#50841A" font-family="Open Sans,Open Sans_MSFontService,sans-serif" font-weight="400" font-size="83" transform="matrix(1 0 0 1 1739.94 1424)">-</text><text fill="#50841A" font-family="Open Sans,Open Sans_MSFontService,sans-serif" font-weight="400" font-size="83" transform="matrix(1 0 0 1 1766.3 1424)">Title</text><text fill="#50841A" font-family="Open Sans,Open Sans_MSFontService,sans-serif" font-weight="400" font-size="83" transform="matrix(-1.83697e-16 -1 1 -1.83697e-16 1181.09 1107)">Axis</text><text fill="#50841A" font-family="Open Sans,Open Sans_MSFontService,sans-serif" font-weight="400" font-size="83" transform="matrix(-1.83697e-16 -1 1 -1.83697e-16 1181.09 951)">-</text><text fill="#50841A" font-family="Open Sans,Open Sans_MSFontService,sans-serif" font-weight="400" font-size="83" transform="matrix(-1.83697e-16 -1 1 -1.83697e-16 1181.09 925)">Y</text><text fill="#50841A" font-family="Open Sans,Open Sans_MSFontService,sans-serif" font-weight="400" font-size="83" transform="matrix(-1.83697e-16 -1 1 -1.83697e-16 1181.09 879)">-</text><text fill="#50841A" font-family="Open Sans,Open Sans_MSFontService,sans-serif" font-weight="400" font-size="83" transform="matrix(-1.83697e-16 -1 1 -1.83697e-16 1181.09 852)">Title</text><rect x="2310" y="467" width="234" height="603" fill="#BDE4FF"/><path d="M1238.5 625.5 2277.87 625.5" stroke="#F182DF" stroke-width="4.58333" stroke-miterlimit="8" fill="none" fill-rule="evenodd"/><path d="M1236.5 967.5 2275.87 967.501" stroke="#F182DF" stroke-width="4.58333" stroke-miterlimit="8" fill="none" fill-rule="evenodd"/><path d="M1653.5 450.5 1653.5 1307.98" stroke="#F182DF" stroke-width="4.58333" stroke-miterlimit="8" fill="none" fill-rule="evenodd"/><path d="M2068.5 450.5 2068.5 1307.98" stroke="#F182DF" stroke-width="4.58333" stroke-miterlimit="8" fill="none" fill-rule="evenodd"/><rect x="2343" y="621" width="52" height="286" fill="url(#fill0)"/><path d="M2336 952.5C2336 934.551 2350.55 920 2368.5 920 2386.45 920 2401 934.551 2401 952.5 2401 970.449 2386.45 985 2368.5 985 2350.55 985 2336 970.449 2336 952.5Z" fill="#2F99FF" fill-rule="evenodd"/><path d="M2334 1031.5C2334 1013.55 2348.55 999 2366.5 999 2384.45 999 2399 1013.55 2399 1031.5 2399 1049.45 2384.45 1064 2366.5 1064 2348.55 1064 2334 1049.45 2334 1031.5Z" fill="#002060" fill-rule="evenodd"/><text fill="#002060" font-family="Open Sans,Open Sans_MSFontService,sans-serif" font-weight="400" font-size="83" transform="matrix(1 0 0 1 2689.64 999)">Legend</text><text fill="#002060" font-family="Open Sans,Open Sans_MSFontService,sans-serif" font-weight="400" font-size="83" transform="matrix(1 0 0 1 2970.94 999)">-</text><text fill="#002060" font-family="Open Sans,Open Sans_MSFontService,sans-serif" font-weight="400" font-size="83" transform="matrix(1 0 0 1 2997.29 999)">Text</text><text fill="#002060" font-family="Open Sans,Open Sans_MSFontService,sans-serif" font-weight="400" font-size="73" transform="matrix(1 0 0 1 2406.5 906)">0</text><text fill="#002060" font-family="Open Sans,Open Sans_MSFontService,sans-serif" font-weight="400" font-size="73" transform="matrix(1 0 0 1 2406.5 674)">1</text><text fill="#00B0F0" font-family="Open Sans,Open Sans_MSFontService,sans-serif" font-weight="400" font-size="64" transform="matrix(1 0 0 1 2308.92 519)">Legend</text><text fill="#00B0F0" font-family="Open Sans,Open Sans_MSFontService,sans-serif" font-weight="400" font-size="64" transform="matrix(1 0 0 1 2528.34 519)">-</text><text fill="#00B0F0" font-family="Open Sans,Open Sans_MSFontService,sans-serif" font-weight="400" font-size="64" transform="matrix(1 0 0 1 2308.92 596)">Title</text><text fill="#BDE4FF" font-family="Open Sans,Open Sans_MSFontService,sans-serif" font-weight="400" font-size="83" transform="matrix(1 0 0 1 2689.64 778)">Legend</text><text fill="#BDE4FF" font-family="Open Sans,Open Sans_MSFontService,sans-serif" font-weight="400" font-size="83" transform="matrix(1 0 0 1 2970.94 778)">-</text><text fill="#BDE4FF" font-family="Open Sans,Open Sans_MSFontService,sans-serif" font-weight="400" font-size="83" transform="matrix(1 0 0 1 2689.64 877)">Background</text><text fill="#E8412C" font-family="Open Sans,Open Sans_MSFontService,sans-serif" font-weight="400" font-size="83" transform="matrix(1 0 0 1 1924.78 1662)">Panel</text><text fill="#E8412C" font-family="Open Sans,Open Sans_MSFontService,sans-serif" font-weight="400" font-size="83" transform="matrix(1 0 0 1 2137.9 1662)">-</text><text fill="#E8412C" font-family="Open Sans,Open Sans_MSFontService,sans-serif" font-weight="400" font-size="83" transform="matrix(1 0 0 1 2164.25 1662)">Border</text><text fill="#E8412C" font-family="Open Sans,Open Sans_MSFontService,sans-serif" font-weight="400" font-size="83" transform="matrix(1 0 0 1 1926.92 1570)">Panel</text><text fill="#E8412C" font-family="Open Sans,Open Sans_MSFontService,sans-serif" font-weight="400" font-size="83" transform="matrix(1 0 0 1 2140.04 1570)">-</text><text fill="#E8412C" font-family="Open Sans,Open Sans_MSFontService,sans-serif" font-weight="400" font-size="83" transform="matrix(1 0 0 1 2166.4 1570)">Background</text><text fill="#2F99FF" font-family="Open Sans,Open Sans_MSFontService,sans-serif" font-weight="400" font-size="83" transform="matrix(1 0 0 1 2689.64 1114)">Legend</text><text fill="#2F99FF" font-family="Open Sans,Open Sans_MSFontService,sans-serif" font-weight="400" font-size="83" transform="matrix(1 0 0 1 2970.94 1114)">-</text><text fill="#2F99FF" font-family="Open Sans,Open Sans_MSFontService,sans-serif" font-weight="400" font-size="83" transform="matrix(1 0 0 1 2997.29 1114)">Key</text><text fill="#002060" font-family="Open Sans,Open Sans_MSFontService,sans-serif" font-weight="400" font-size="73" transform="matrix(1 0 0 1 2437.17 983)">A</text><text fill="#002060" font-family="Open Sans,Open Sans_MSFontService,sans-serif" font-weight="400" font-size="73" transform="matrix(1 0 0 1 2435.31 1063)">B</text><path d="M1814.52 152.208 1839.12 152.42 1851.22 152.729 1851.1 157.311 1839.03 157.002 1839.07 157.003 1814.48 156.791ZM1865 153.102 1888.18 154.076 1901.66 154.862 1901.4 159.437 1887.93 158.653 1887.97 158.655 1864.81 157.681ZM1915.44 155.734 1951.98 158.736 1951.61 163.304 1915.06 160.302ZM1965.73 159.989 1984.17 161.942 2002.2 164.14 2001.64 168.69 1983.63 166.494 1983.67 166.498 1965.25 164.546ZM2015.86 165.941 2030.34 167.938 2052.17 171.309 2051.47 175.838 2029.65 172.471 2029.69 172.476 2015.24 170.482ZM2065.76 173.624 2074.78 175.167 2096.23 179.211 2101.88 180.377 2100.95 184.866 2095.32 183.703 2095.36 183.711 2073.95 179.675 2073.98 179.681 2064.99 178.142ZM2115.35 183.158 2117.11 183.523 2137.36 188.09 2151.14 191.473 2150.05 195.924 2136.29 192.546 2136.33 192.556 2116.12 187.998 2116.16 188.007 2114.42 187.647ZM2164.5 194.915 2175.82 197.937 2193.92 203.191 2199.84 205.06 2198.46 209.431 2192.56 207.57 2192.62 207.585 2174.56 202.346 2174.61 202.359 2163.32 199.344ZM2212.99 209.261 2227.64 214.296 2243.16 220.121 2247.54 221.922 2245.8 226.161 2241.45 224.374 2241.52 224.4 2226.06 218.598 2226.12 218.62 2211.5 213.596ZM2260.29 227.273 2271.3 232.256 2283.82 238.544 2293.21 243.82 2290.97 247.816 2281.62 242.566 2281.71 242.616 2269.28 236.373 2269.36 236.413 2258.4 231.448ZM2304.98 251.156 2305.54 251.507 2314.64 258.168 2322.52 264.943 2329.12 271.833 2332.5 276.328 2328.84 279.081 2325.54 274.696 2325.72 274.905 2319.29 268.194 2319.45 268.346 2311.72 261.702 2311.87 261.814 2302.89 255.251 2303.01 255.335 2302.52 255.023ZM2339.27 289.052 2340.63 293.17 2341.25 296.888 2341.45 300.501 2341.43 326.176 2336.84 326.172 2336.87 300.562 2336.87 300.692 2336.68 297.269 2336.71 297.517 2336.14 294.096 2336.22 294.436 2334.92 290.486ZM2341.4 339.929 2341.4 341.168 2341.36 354.203 2341.32 366.811 2341.27 376.601 2336.69 376.581 2336.73 366.794 2336.78 354.19 2336.82 341.158 2336.82 339.92ZM2341.2 390.355 2341.13 400.997 2341.06 410.83 2340.9 423.745 2336.31 423.686 2336.48 410.778 2336.48 410.79 2336.55 400.968 2336.62 390.326ZM2352.44 419.405 2338.15 446.628 2324.95 418.861Z" fill="#FFC89F"/><path d="M1634.58 250.21 1645.18 250.598 1655.77 251.737 1666.19 253.574 1671.34 254.832 1670.25 259.284 1665.17 258.044 1665.32 258.074 1655.05 256.264 1655.2 256.286 1644.77 255.164 1644.93 255.175 1634.42 254.79ZM1684.69 258.671 1686.18 259.141 1695.6 262.774 1704.53 266.909 1712.89 271.501 1718.13 274.906 1715.63 278.75 1710.46 275.39 1710.6 275.477 1702.39 270.964 1702.53 271.035 1693.75 266.964 1693.88 267.023 1684.6 263.443 1684.74 263.492 1683.31 263.044ZM1729.33 283.512 1733.71 287.569 1738.96 293.553 1743.23 299.788 1746.42 306.24 1748.42 312.865 1748.69 315.567 1744.13 316.035 1743.88 313.55 1743.96 313.978 1742.09 307.745 1742.23 308.098 1739.2 301.963 1739.36 302.243 1735.26 296.256 1735.43 296.473 1730.34 290.683 1730.51 290.852 1726.21 286.876ZM1750.68 328.683 1751.52 331.453 1751.38 331.1 1754.41 337.235 1754.25 336.955 1758.34 342.942 1758.18 342.725 1763.26 348.515 1763.1 348.346 1769.09 353.891 1768.93 353.758 1771.94 356.08 1769.15 359.71 1766.05 357.325 1759.9 351.629 1754.64 345.645 1750.37 339.41 1747.19 332.958 1746.3 330.005ZM1783.1 363.778 1783.15 363.808 1783 363.721 1791.21 368.234 1791.07 368.163 1799.86 372.234 1799.72 372.175 1809 375.754 1808.86 375.706 1816.12 377.983 1814.75 382.356 1807.42 380.057 1798 376.424 1789.07 372.289 1780.72 367.697 1780.6 367.622ZM1829.07 381.226 1836.6 382.226 1835.99 386.769 1828.47 385.769ZM1833.05 370.371 1859.1 386.698 1830.41 397.744Z" fill="#F07D00"/><path d="M0.340689-2.2662 4.36515-1.66118 8.58363 0.218341 12.6257 3.18449 16.5247 7.14894 20.3165 12.0634 24.0237 17.8955 27.0748 23.5394 23.0428 25.719 20.0303 20.1463 20.1123 20.2859 16.5044 14.6101 16.6241 14.7807 12.98 10.0577 13.1604 10.2647 9.48728 6.52984 9.76537 6.77051 6.07042 4.05908 6.49355 4.30479 2.78408 2.65205 3.37605 2.82496-0.340689 2.2662ZM32.9007 36.2455 34.7125 40.6096 38.1306 49.8195 41.4699 59.7956 44.7248 70.5047 44.9083 71.1662 40.4917 72.3913 40.3157 71.7568 40.3314 71.8107 37.0939 61.1591 37.1134 61.2201 33.796 51.3095 33.8207 51.3795 30.4308 42.2453 30.4627 42.3266 28.6677 38.003ZM48.5411 84.4788 50.9569 93.9871 53.9209 106.692 56.7745 119.994 56.8383 120.317 52.3418 121.204 52.2816 120.9 52.2892 120.937 49.4439 107.674 49.4528 107.714 46.4985 95.0503 46.5092 95.094 44.0989 85.6074ZM59.5008 133.807 59.5107 133.857 62.1225 148.248 64.6028 163.131 65.6593 170.051 61.1284 170.743 60.0743 163.838 60.0793 163.869 57.6043 149.017 57.6099 149.05 55.0042 134.693 55.0107 134.727 55.0042 134.694ZM67.6706 183.683 69.1403 194.233 71.1841 210.39 72.2362 220.134 67.6793 220.626 66.6295 210.903 66.6343 210.944 64.595 194.823 64.5988 194.851 63.1311 184.316ZM73.7123 233.804 74.7813 243.704 77.0259 270.373 72.4587 270.757 70.2164 244.115 70.2215 244.169 69.1554 234.296ZM78.0441 284.138 79.8238 313.45 80.0961 320.8 75.5159 320.969 75.2446 313.647 75.2472 313.701 73.4692 284.416ZM80.6051 334.54 81.1523 349.312 81.3188 362.515 76.7358 362.573 76.5697 349.398 76.5711 349.454 76.0249 334.71ZM92.7184 357.788 79.3162 385.459 65.2206 358.135Z" fill="#BDE4FF" transform="matrix(-1.83697e-16 -1 -1 1.83697e-16 2929.96 700.816)"/><path d="M0.238587 2.27921-3.62734 2.6839-3.1869 2.59344-7.04527 3.79045-6.68157 3.64239-10.5248 5.60617-10.2434 5.43582-14.064 8.1408-13.8528 7.97176-17.6432 11.3924-17.4861 11.2361-21.2387 15.3469-21.121 15.2072-24.8283 19.9824-24.739 19.8592-26.4317 22.3669-30.2307 19.8028-28.4954 17.2319-24.6853 12.3243-20.7963 8.0641-16.8229 4.47838-12.7572 1.59981-8.59155-0.528673-4.3292-1.85101-0.238587-2.27921ZM-33.3818 33.9434-35.3907 37.7123-35.3476 37.6273-38.7981 44.8051-38.7632 44.729-42.1306 52.4435-42.102 52.3749-45.3788 60.6006-45.3549 60.538-47.8091 67.2641-52.1148 65.6931-49.6491 58.9355-46.3461 50.6441-42.9471 42.8571-39.4578 35.5986-37.4265 31.7876ZM-52.1475 80.1872-54.5287 87.9158-54.5139 87.866-57.3526 97.8809-57.3399 97.8339-60.0502 108.232-60.034 108.166-61.6922 115.403-66.1597 114.379-64.4939 107.109-61.7689 96.6544-58.9165 86.5911-56.5276 78.8377ZM-64.7631 128.806-65.0391 130.01-65.0218 129.928-69.4228 152.999-69.4093 152.921-71.2395 164.723-75.7687 164.021-73.9324 152.179-69.5161 129.028-69.2307 127.782ZM-73.2925 178.241-76.1462 201.85-76.1383 201.774-77.2576 214.611-81.8237 214.213-80.701 201.338-77.8427 177.691ZM-78.4124 228.234-79.7382 253.155-79.7354 253.075-79.9474 264.783-84.53 264.7-84.3172 252.952-82.9893 227.991ZM-80.1963 278.531-80.2087 279.213-80.2086 279.132-79.9847 292.214-79.9873 292.137-79.3248 305.193-79.3298 305.119-78.5114 314.912-83.0788 315.294-83.9003 305.463-84.5667 292.331-84.792 279.17-84.7789 278.448ZM-77.0393 328.509-76.7532 330.98-76.7625 330.909-74.8694 343.735-74.8807 343.666-72.6057 356.364-72.6263 356.262-70.7909 364.37-75.2611 365.382-77.108 357.224-79.3984 344.439-81.302 331.543-81.5922 329.036ZM-67.7551 377.781-66.987 381.174-67.0214 381.041-60.0241 405.134-60.0667 405.002-57.3421 412.629-61.6583 414.171-64.4062 406.479-71.442 382.253-72.2253 378.793ZM-52.7163 425.578-51.8247 428.073-51.8768 427.941-42.5031 449.785-42.5496 449.683-38.0552 458.891-42.174 460.901-46.693 451.644-56.1168 429.682-57.0325 427.119ZM-31.6891 470.897-26.6893 479.562-26.733 479.49-20.9782 488.661-21.0273 488.586-15.0744 497.297-15.1297 497.22-11.9699 501.455-15.6435 504.196-18.8318 499.923-24.8367 491.135-30.6379 481.89-35.6589 473.188ZM-3.50383 512.157-2.749 513.08-2.8201 512.997 3.642 520.175 3.56079 520.089 10.1643 526.705 10.0712 526.617 16.8021 532.644 16.6951 532.554 22.5248 537.166 19.6812 540.761 13.7966 536.105 6.96583 529.988 0.275237 523.286-6.26291 516.023-7.05231 515.058ZM33.696 544.598 37.2453 546.674 37.0831 546.587 44.1817 550.008 43.7577 549.853 50.1328 551.492 48.9914 555.931 42.3965 554.235 35.0106 550.676 31.3819 548.554ZM47.852 539.319 72.006 558.343 42.2947 566.252Z" fill="#2F99FF" transform="matrix(-6.12323e-17 -1 -1 6.12323e-17 2925.84 1136.51)"/><path d="M2690.35 973.718 2672.62 973.584 2655.44 973.205 2653.63 973.145 2653.78 968.564 2655.58 968.623 2655.56 968.623 2672.71 969.001 2672.67 969.001 2690.38 969.135ZM2639.87 972.635 2639.37 972.615 2631.92 972.252 2624.95 971.85 2618.54 971.412 2612.75 970.943 2607.64 970.446 2603.28 969.924 2603.06 969.89 2603.76 965.359 2603.94 965.388 2603.86 965.377 2608.16 965.892 2608.11 965.886 2613.18 966.379 2613.14 966.376 2618.9 966.843 2618.87 966.84 2625.25 967.276 2625.23 967.275 2632.17 967.676 2632.15 967.675 2639.58 968.037 2639.56 968.036 2640.06 968.056ZM2590.12 966.03 2586.93 965.539 2587 965.549 2582.7 965.034 2582.75 965.04 2577.69 964.547 2577.73 964.55 2571.97 964.084 2571.99 964.086 2565.61 963.65 2565.63 963.651 2558.69 963.25 2558.71 963.251 2553.84 963.014 2554.06 958.436 2558.95 958.674 2565.91 959.076 2572.32 959.514 2578.11 959.983 2583.22 960.48 2587.58 961.003 2590.82 961.5ZM2540.13 962.463 2535.28 962.303 2535.32 962.304 2523.37 962.083 2523.46 957.5 2535.42 957.721 2540.29 957.882ZM2527.82 973.599 2500.5 959.5 2528.17 946.101Z" fill="#002060"/><path d="M2646.86 1540.22 2650.72 1539.97 2650.44 1540.01 2654.3 1539.27 2654.04 1539.34 2657.88 1538.13 2657.66 1538.21 2661.48 1536.55 2661.28 1536.64 2665.07 1534.54 2664.9 1534.64 2668.65 1532.11 2668.51 1532.21 2672.22 1529.27 2672.1 1529.37 2675.75 1526.04 2675.65 1526.13 2677.13 1524.61 2680.42 1527.8 2678.89 1529.37 2675.13 1532.81 2671.29 1535.86 2667.38 1538.49 2663.41 1540.7 2659.38 1542.46 2655.29 1543.75 2651.16 1544.54 2647.15 1544.8ZM2685.75 1514.31 2689.4 1509.4 2689.29 1509.56 2695.74 1499.12 2695.66 1499.27 2701.69 1487.7 2701.63 1487.83 2703.74 1483.05 2707.93 1484.9 2705.79 1489.75 2699.68 1501.46 2693.13 1512.05 2689.43 1517.04ZM2708.95 1470.48 2712.13 1461.92 2712.09 1462.04 2716.49 1447.83 2716.46 1447.95 2719.55 1435.67 2723.99 1436.79 2720.89 1449.13 2716.45 1463.46 2713.24 1472.07ZM2722.3 1422.33 2723.18 1417.87 2723.16 1417.99 2725.38 1402.27 2725.37 1402.39 2726.75 1386.41 2726.74 1386.54 2726.75 1386.33 2731.33 1386.47 2731.32 1386.74 2729.93 1402.85 2727.69 1418.7 2726.8 1423.21ZM2727.15 1372.59 2727.21 1370.44 2727.22 1370.69 2726.55 1362.63 2726.61 1362.99 2724.62 1354.95 2724.73 1355.26 2721.47 1347.25 2721.59 1347.51 2717.11 1339.55 2717.24 1339.76 2717.04 1339.48 2720.76 1336.8 2721.04 1337.19 2725.66 1345.39 2729.03 1353.69 2731.1 1362.07 2731.8 1370.44 2731.73 1372.72ZM2708.83 1328.73 2704.89 1324.2 2705.01 1324.34 2697.09 1316.61 2697.21 1316.71 2688.23 1309.09 2688.34 1309.18 2682.09 1304.49 2684.84 1300.82 2691.15 1305.55 2700.24 1313.27 2708.28 1321.12 2712.29 1325.72ZM2670.91 1296.71 2667.47 1294.41 2667.56 1294.46 2655.66 1287.27 2655.74 1287.32 2642.95 1280.3 2643.02 1280.34 2639.42 1278.53 2641.47 1274.43 2645.11 1276.26 2657.99 1283.32 2669.98 1290.57 2673.46 1292.9ZM2627.16 1272.49 2615 1266.91 2615.07 1266.94 2599.86 1260.53 2599.92 1260.56 2593.59 1258.11 2595.24 1253.83 2601.61 1256.3 2616.88 1262.73 2629.07 1268.32ZM2580.79 1253.25 2567.44 1248.49 2567.49 1248.51 2550.25 1242.86 2550.3 1242.88 2546.14 1241.63 2547.46 1237.24 2551.65 1238.5 2568.95 1244.16 2582.33 1248.93ZM2532.98 1237.66 2532.46 1237.51 2532.51 1237.52 2514.12 1232.46 2514.17 1232.47 2497.64 1228.31 2498.75 1223.87 2515.32 1228.03 2533.76 1233.11 2534.3 1233.28ZM2484.29 1225.21 2475.96 1223.31 2476.01 1223.32 2456.22 1219.24 2456.26 1219.25 2448.48 1217.82 2449.31 1213.31 2457.12 1214.75 2476.96 1218.83 2485.31 1220.74ZM2435 1215.36 2415.63 1212.21 2415.68 1212.22 2398.8 1209.83 2399.45 1205.29 2416.34 1207.68 2435.74 1210.83ZM2385.21 1208.11 2373.86 1206.75 2373.91 1206.75 2352.64 1204.64 2352.68 1204.65 2348.84 1204.35 2349.19 1199.78 2353.06 1200.08 2374.38 1202.19 2385.76 1203.56ZM2335.13 1203.28 2331.24 1202.98 2331.29 1202.98 2309.72 1201.78 2309.78 1201.78 2298.62 1201.44 2298.76 1196.86 2309.95 1197.2 2331.57 1198.41 2335.48 1198.71ZM2293.77 1212.7 2266.5 1198.5 2294.22 1185.2Z" fill="#E8412C"/><text fill="#F182DF" font-family="Open Sans,Open Sans_MSFontService,sans-serif" font-weight="400" font-size="83" transform="matrix(1 0 0 1 1321.29 1560)">Panel</text><text fill="#F182DF" font-family="Open Sans,Open Sans_MSFontService,sans-serif" font-weight="400" font-size="83" transform="matrix(1 0 0 1 1534.42 1560)">-</text><text fill="#F182DF" font-family="Open Sans,Open Sans_MSFontService,sans-serif" font-weight="400" font-size="83" transform="matrix(1 0 0 1 1560.77 1560)">Grid</text><path d="M0.0599987-2.29088 8.06325-2.08127 16.1203-1.45234 24.1662-0.412634 32.1967 1.0308 36.8404 2.09748 35.8143 6.56448 31.2242 5.5101 31.3318 5.53212 23.4111 4.10841 23.5228 4.12566 15.5904 3.10063 15.7058 3.11258 7.76565 2.49277 7.884 2.49894-0.0599987 2.29088ZM50.2964 5.79051 56.1525 7.71254 64.1007 10.7081 79.8197 17.771 84.3796 20.258 82.185 24.2818 77.7026 21.8371 77.8607 21.9155 62.2869 14.9179 62.4179 14.972 54.5825 12.0189 54.6761 12.0518 48.8671 10.1453ZM96.544 27.0035 110.751 36.1147 125.882 47.276 126.86 48.093 123.923 51.611 122.997 50.8383 123.106 50.9235 108.091 39.8475 108.214 39.9324 94.0698 30.8616ZM137.415 56.9061 140.751 59.6919 155.328 73.3092 164.092 82.3865 160.795 85.57 152.072 76.5353 152.156 76.6182 137.669 63.0848 137.764 63.1691 134.477 60.4242ZM173.509 92.5512 183.491 103.937 197.017 120.842 197.061 120.902 193.364 123.612 193.349 123.591 193.408 123.668 179.944 106.841 180.011 106.92 170.063 95.5727ZM205.189 131.993 210.133 138.74 222.809 157.576 225.849 162.489 221.951 164.901 218.934 160.025 218.982 160.099 206.356 141.337 206.409 141.412 201.492 134.702ZM233.084 174.182 235.014 177.3 246.718 197.859 251.127 206.282 247.067 208.407 242.676 200.021 242.715 200.091 231.051 179.604 231.094 179.676 229.187 176.593ZM257.505 218.463 257.891 219.201 268.502 241.275 273.135 251.797 268.94 253.644 264.322 243.157 264.354 243.226 253.777 221.222 253.812 221.292 253.444 220.589ZM278.692 264.456 287.915 287.407 292.03 298.685 287.724 300.256 283.622 289.013 283.648 289.082 274.439 266.165ZM296.758 311.674 304.711 335.841 307.899 346.68 303.502 347.973 300.324 337.169 300.345 337.239 292.404 313.107ZM311.779 359.871 312.05 360.79 318.642 386.159 320.767 395.565 316.297 396.576 314.18 387.205 314.197 387.276 307.623 361.979 307.643 362.049 307.382 361.164ZM323.798 408.977 324.457 411.895 329.462 437.946 330.603 445.154 326.076 445.87 324.941 438.7 324.954 438.774 319.963 412.796 319.978 412.869 319.327 409.987ZM332.753 458.735 333.627 464.26 336.921 490.785 337.323 495.266 332.758 495.675 332.36 491.233 332.368 491.311 329.084 464.863 329.094 464.939 328.226 459.451ZM338.55 508.961 339.313 517.475 340.698 545.652 336.121 545.877 334.738 517.746 334.744 517.838 333.985 509.37ZM352.188 543.344 338.971 571.104 324.693 543.875Z" fill="#F182DF" transform="matrix(1 0 0 -1 1727.5 1532.6)"/><text fill="#87C388" font-family="Open Sans,Open Sans_MSFontService,sans-serif" font-weight="400" font-size="73" transform="matrix(1 0 0 1 1219.75 1408)">0</text><text fill="#87C388" font-family="Open Sans,Open Sans_MSFontService,sans-serif" font-weight="400" font-size="73" transform="matrix(1 0 0 1 1426.97 1401)">1</text><text fill="#87C388" font-family="Open Sans,Open Sans_MSFontService,sans-serif" font-weight="400" font-size="73" transform="matrix(1 0 0 1 2250.64 1399)">5</text><text fill="#87C388" font-family="Open Sans,Open Sans_MSFontService,sans-serif" font-weight="400" font-size="73" transform="matrix(1 0 0 1 1168 1326)">a</text><text fill="#87C388" font-family="Open Sans,Open Sans_MSFontService,sans-serif" font-weight="400" font-size="73" transform="matrix(1 0 0 1 2047.27 1394)">4</text><text fill="#87C388" font-family="Open Sans,Open Sans_MSFontService,sans-serif" font-weight="400" font-size="73" transform="matrix(1 0 0 1 1166.96 1155)">b</text><text fill="#87C388" font-family="Open Sans,Open Sans_MSFontService,sans-serif" font-weight="400" font-size="73" transform="matrix(1 0 0 1 1173.72 637)">y</text><text fill="#87C388" font-family="Open Sans,Open Sans_MSFontService,sans-serif" font-weight="400" font-size="73" transform="matrix(1 0 0 1 1172.5 488)">z</text><text fill="#005E30" font-family="Open Sans,Open Sans_MSFontService,sans-serif" font-weight="400" font-size="83" transform="matrix(1 0 0 1 649.92 486)">Axis</text><text fill="#005E30" font-family="Open Sans,Open Sans_MSFontService,sans-serif" font-weight="400" font-size="83" transform="matrix(1 0 0 1 805.181 486)">-</text><text fill="#005E30" font-family="Open Sans,Open Sans_MSFontService,sans-serif" font-weight="400" font-size="83" transform="matrix(1 0 0 1 831.535 486)">Line</text><text fill="#87C388" font-family="Open Sans,Open Sans_MSFontService,sans-serif" font-weight="400" font-size="83" transform="matrix(1 0 0 1 646.483 378)">Axis</text><text fill="#87C388" font-family="Open Sans,Open Sans_MSFontService,sans-serif" font-weight="400" font-size="83" transform="matrix(1 0 0 1 801.743 378)">-</text><text fill="#87C388" font-family="Open Sans,Open Sans_MSFontService,sans-serif" font-weight="400" font-size="83" transform="matrix(1 0 0 1 828.097 378)">Text</text><text fill="#18FF8E" font-family="Open Sans,Open Sans_MSFontService,sans-serif" font-weight="400" font-size="83" transform="matrix(1 0 0 1 621.85 595)">Axis</text><text fill="#18FF8E" font-family="Open Sans,Open Sans_MSFontService,sans-serif" font-weight="400" font-size="83" transform="matrix(1 0 0 1 777.11 595)">-</text><text fill="#18FF8E" font-family="Open Sans,Open Sans_MSFontService,sans-serif" font-weight="400" font-size="83" transform="matrix(1 0 0 1 803.464 595)">Ticks</text><path d="M992.539 456.209 1004.1 456.405 1015.63 456.978 1029.31 458.305 1028.87 462.867 1015.24 461.545 1015.35 461.553 1003.91 460.984 1003.99 460.987 992.461 460.791ZM1043.07 459.885 1048.7 460.701 1058.95 462.529 1068.66 464.61 1077.75 466.92 1079.28 467.379 1077.96 471.768 1076.48 471.324 1076.58 471.35 1067.57 469.062 1067.66 469.082 1058.03 467.019 1058.1 467.034 1047.93 465.219 1048 465.231 1042.41 464.421ZM1092.45 471.689 1093.73 472.143 1100.44 475.018 1106.21 478.054 1110.96 481.262 1114.62 484.685 1117.05 488.426 1117.85 492.016 1118.56 495.201 1118.24 494.446 1119.15 495.849 1115.31 498.351 1114.17 496.6 1113.38 493.009 1112.67 489.824 1112.99 490.579 1110.93 487.42 1111.28 487.841 1107.96 484.732 1108.24 484.958 1103.75 481.923 1103.97 482.052 1098.39 479.116 1098.56 479.195 1091.99 476.384 1092.12 476.436 1090.92 476.007ZM1128.75 503.757 1132.84 505.909 1132.67 505.83 1139.24 508.641 1139.11 508.589 1146.58 511.251 1146.47 511.215 1154.75 513.702 1154.65 513.675 1162.72 515.726 1161.59 520.169 1153.48 518.105 1145.09 515.588 1137.5 512.883 1130.78 510.008 1126.61 507.813ZM1176.02 518.507 1183.3 519.806 1183.23 519.794 1193.85 521.334 1193.72 521.319 1212.18 522.909 1211.79 527.476 1193.26 525.88 1182.53 524.325 1175.21 523.019ZM1211.86 511.587 1238.73 526.525 1210.65 539.061Z" fill="#005E30"/><path d="M992.571 565.209 1003.31 565.543 1014.1 566.536 1024.83 568.164 1029.37 569.116 1028.43 573.602 1023.96 572.662 1024.08 572.686 1013.48 571.077 1013.61 571.094 1002.96 570.113 1003.1 570.122 992.429 569.791ZM1042.85 572.372 1046.09 573.238 1056.56 576.641 1066.89 580.592 1077.08 585.07 1077.59 585.324 1075.55 589.428 1075.09 589.198 1075.19 589.244 1065.1 584.81 1065.21 584.853 1054.97 580.943 1055.08 580.982 1044.73 577.615 1044.84 577.65 1041.67 576.799ZM1089.93 591.629 1096.92 595.522 1106.53 601.453 1115.91 607.827 1120.99 611.611 1118.25 615.286 1113.21 611.532 1113.29 611.59 1104 605.272 1104.08 605.327 1094.56 599.449 1094.65 599.502 1087.7 595.634ZM1131.87 620.177 1133.88 621.816 1142.43 629.39 1150.67 637.322 1158.57 645.592 1158.67 645.709 1155.23 648.734 1155.16 648.653 1155.23 648.724 1147.39 640.523 1147.46 640.591 1139.29 632.725 1139.36 632.79 1130.88 625.279 1130.95 625.342 1128.97 623.734ZM1167.73 656.18 1173.28 663.063 1180.05 672.221 1186.4 681.635 1189.21 686.222 1185.3 688.616 1182.52 684.072 1182.57 684.156 1176.28 674.825 1176.33 674.906 1169.63 665.826 1169.69 665.903 1164.16 659.058ZM1196.13 698.215 1197.75 701.145 1202.72 711.2 1207.18 721.428 1211.11 731.807 1211.2 732.082 1206.84 733.489 1206.77 733.269 1206.81 733.378 1202.91 723.105 1202.95 723.208 1198.54 713.082 1198.58 713.18 1193.67 703.221 1193.71 703.315 1192.12 700.431ZM1215.3 745.329 1217.32 752.939 1219.56 763.688 1220.64 773.002 1216.09 773.529 1215.02 764.318 1215.05 764.522 1212.85 753.935 1212.88 754.055 1210.87 746.506ZM1231.7 767.592 1220.21 796.108 1204.29 769.802Z" fill="#18FF8E"/><path d="M992.588 348.21 1001.12 348.538 1009.67 349.503 1018.07 351.059 1026.27 353.164 1029.27 354.149 1027.84 358.503 1024.91 357.541 1025.06 357.584 1017.01 355.518 1017.16 355.552 1008.91 354.025 1009.07 354.049 1000.69 353.102 1000.86 353.115 992.412 352.79ZM1042.4 359.142 1049.01 362.356 1055.75 366.247 1061.97 370.487 1067.6 375.04 1072.57 379.873 1073.08 380.487 1069.57 383.428 1069.13 382.904 1069.29 383.077 1064.48 378.4 1064.63 378.538 1059.16 374.109 1059.31 374.22 1053.24 370.082 1053.39 370.173 1046.79 366.366 1046.93 366.442 1040.4 363.263ZM1081.21 392.236 1082.85 395.736 1084.47 401.372 1085.01 406.88 1085.53 412.18 1085.45 411.77 1086.96 417.028 1086.83 416.685 1089.26 421.86 1089.11 421.584 1092.21 426.336 1088.37 428.839 1085.18 423.954 1082.6 418.469 1080.98 412.833 1080.45 407.326 1079.93 402.026 1080.01 402.435 1078.5 397.177 1078.63 397.52 1077.06 394.186ZM1101.07 435.864 1106.3 440.097 1106.15 439.985 1112.21 444.124 1112.07 444.032 1118.67 447.839 1118.52 447.763 1125.58 451.197 1125.44 451.134 1132.04 453.808 1130.32 458.056 1123.65 455.353 1116.45 451.849 1109.7 447.959 1103.49 443.719 1098.18 439.428ZM1144.81 457.494 1150.66 458.652 1149.76 463.148 1143.92 461.99ZM1147.34 446.692 1172.95 463.705 1143.98 473.985Z" fill="#87C388"/><path d="M1863.01 308.256 1863.01 340.34 1854.99 340.34 1854.99 308.256ZM1863.01 364.402 1863.01 396.486 1854.99 396.486 1854.99 364.402ZM1863.01 420.548 1863.01 451.649 1854.99 451.649 1854.99 420.548ZM1833 333.189 1859 301.992 1885 333.189C1886.42 334.89 1886.19 337.419 1884.48 338.837 1882.78 340.255 1880.25 340.025 1878.84 338.324L1855.92 310.824 1862.08 310.824 1839.16 338.324C1837.75 340.025 1835.22 340.255 1833.52 338.837 1831.81 337.419 1831.58 334.891 1833 333.189ZM1885 426.717 1859 457.914 1833 426.717C1831.58 425.015 1831.81 422.487 1833.52 421.069 1835.22 419.651 1837.75 419.881 1839.16 421.582L1862.08 449.082 1855.92 449.082 1878.84 421.582C1880.25 419.88 1882.78 419.651 1884.48 421.068 1886.19 422.486 1886.42 425.015 1885 426.717Z" fill="#F07D00"/></g></svg>